<?xml version="1.0" encoding="UTF-8" standalone="no"?><svg xmlns="http://www.w3.org/2000/svg" xmlns:xlink="http://www.w3.org/1999/xlink" contentScriptType="application/ecmascript" contentStyleType="text/css" height="460px" preserveAspectRatio="none" style="width:1006px;height:460px;" version="1.1" viewBox="0 0 1006 460" width="1006px" zoomAndPan="magnify"><defs><filter height="300%" id="f1ndjtv86ts3s1" width="300%" x="-1" y="-1"><feGaussianBlur result="blurOut" stdDeviation="2.0"/><feColorMatrix in="blurOut" result="blurOut2" type="matrix" values="0 0 0 0 0 0 0 0 0 0 0 0 0 0 0 0 0 0 .4 0"/><feOffset dx="4.0" dy="4.0" in="blurOut2" result="blurOut3"/><feBlend in="SourceGraphic" in2="blurOut3" mode="normal"/></filter></defs><g><!--cluster quiltz.domain--><polygon fill="#FFFFFF" filter="url(#f1ndjtv86ts3s1)" points="22,24,22,24.2102,32.0909,23.5857,42.1818,24.1933,52.2727,24.3997,62.3636,23.2866,72.4545,23.9223,82.5455,23.5735,92.6364,23.6165,102.7273,23.9318,112.8182,23.3086,122.9091,24.5536,133,24,132.7996,23.9371,134.3371,28.4396,135.9374,32.9619,137.1727,37.3696,138.6217,41.8443,140,46.2969,140,46.2649,150.0476,46.4754,160.0952,46.536,170.1429,46.8826,180.1905,46.9679,190.2381,46.9761,200.2857,46.5515,210.3333,46.7605,220.381,46.9991,230.4286,45.5757,240.4762,46.9754,250.5238,46.0004,260.5714,46.8307,270.619,45.8019,280.6667,46.2284,290.7143,47.0385,300.7619,46.2481,310.8095,46.4022,320.8571,46.6355,330.9048,46.7131,340.9524,46.293,351,46.5841,361.0476,45.7245,371.0952,46.5813,381.1429,46.8451,391.1905,46.7414,401.2381,46.9099,411.2857,45.8138,421.3333,45.6447,431.381,45.6755,441.4286,46.238,451.4762,46.1003,461.5238,46.9783,471.5714,46.1222,481.619,45.9538,491.6667,46.5251,501.7143,45.63,511.7619,45.7777,521.8095,46.9458,531.8571,46.7325,541.9048,47.0314,551.9524,45.9751,562,46.6161,572.0476,46.8873,582.0952,45.8245,592.1429,46.201,602.1905,46.4229,612.2381,46.9486,622.2857,46.2927,632.3333,46.7594,642.381,45.7431,652.4286,45.6196,662.4762,46.8005,672.5238,45.5799,682.5714,46.8058,692.619,46.5035,702.6667,46.029,712.7143,45.9431,722.7619,46.7556,732.8095,45.9975,742.8571,46.8887,752.9048,45.7441,762.9524,46.9143,773,46.7812,783.0476,46.5418,793.0952,46.3441,803.1429,47.0235,813.1905,46.9105,823.2381,46.4661,833.2857,46.5651,843.3333,46.1666,853.381,47.0133,863.4286,46.4517,873.4762,46.4694,883.5238,45.6885,893.5714,45.8917,903.619,46.8276,913.6667,46.7266,923.7143,46.2539,933.7619,45.9747,943.8095,46.0779,953.8571,45.6107,963.9048,46.7116,973.9524,47.0364,984,46.2969,984.5264,46.2969,984.6949,56.3395,983.8633,66.382,984.0872,76.4246,983.6124,86.4672,984.284,96.5098,984.2468,106.5523,984.5524,116.5949,983.7703,126.6375,983.8656,136.6801,984.4435,146.7227,984.5673,156.7652,983.4875,166.8078,983.8061,176.8504,984.1493,186.893,983.3892,196.9355,984.3534,206.9781,984.258,217.0207,983.8992,227.0633,984.1422,237.1059,984.7287,247.1484,983.6871,257.191,984.315,267.2336,984.2856,277.2762,984.1158,287.3188,984.1409,297.3613,984.1135,307.4039,983.3758,317.4465,983.5992,327.4891,983.5385,337.5316,984.0638,347.5742,984.0881,357.6168,984.1617,367.6594,983.709,377.702,983.9325,387.7445,983.8798,397.7871,984.5769,407.8297,984.4266,417.8723,983.5145,427.9148,983.9271,437.9574,984,448,984,447.4228,973.9792,448.2884,963.9583,448.6085,953.9375,448.5446,943.9167,447.5644,933.8958,448.464,923.875,447.2572,913.8542,448.2002,903.8333,447.7007,893.8125,448.0967,883.7917,448.2403,873.7708,448.4721,863.75,447.2801,853.7292,448.4755,843.7083,448.1782,833.6875,448.3553,823.6667,448.7478,813.6458,448.0055,803.625,448.1753,793.6042,448.2134,783.5833,448.1972,773.5625,447.9992,763.5417,448.7107,753.5208,447.3903,743.5,448.5653,733.4792,447.376,723.4583,447.4597,713.4375,448.04,703.4167,448.0283,693.3958,447.5072,683.375,448.4137,673.3542,448.1089,663.3333,448.7267,653.3125,448.6671,643.2917,447.5517,633.2708,447.6021,623.25,447.8708,613.2292,448.3555,603.2083,448.403,593.1875,448.3012,583.1667,447.658,573.1458,448.6364,563.125,448.6338,553.1042,447.9527,543.0833,447.7609,533.0625,447.5986,523.0417,447.7854,513.0208,448.1374,503,447.9316,492.9792,447.5822,482.9583,448.4874,472.9375,447.5411,462.9167,448.5024,452.8958,448.4272,442.875,448.3719,432.8542,448.6925,422.8333,447.7541,412.8125,447.6994,402.7917,448.5189,392.7708,447.4031,382.75,447.766,372.7292,448.1155,362.7083,448.0687,352.6875,447.6415,342.6667,447.957,332.6458,448.7446,322.625,448.6485,312.6042,447.4037,302.5833,448.0785,292.5625,447.4861,282.5417,447.9737,272.5208,448.293,262.5,448.4199,252.4792,447.3353,242.4583,448.4005,232.4375,448.0084,222.4167,447.4447,212.3958,447.5289,202.375,448.3266,192.3542,448.2499,182.3333,447.9836,172.3125,447.3279,162.2917,448.6581,152.2708,447.6882,142.25,447.4719,132.2292,447.9327,122.2083,448.5897,112.1875,448.6154,102.1667,448.0351,92.1458,447.8488,82.125,448.1698,72.1042,448.1862,62.0833,447.4922,52.0625,448.414,42.0417,448.5588,32.0208,447.7842,22,448,21.5708,448,22.6746,437.9048,22.021,427.8095,21.9998,417.7143,22.299,407.619,21.3543,397.5238,22.53,387.4286,21.9846,377.3333,22.6688,367.2381,21.7841,357.1429,22.409,347.0476,21.556,336.9524,22.245,326.8571,22.3793,316.7619,21.6727,306.6667,22.363,296.5714,21.4286,286.4762,21.5295,276.381,22.6828,266.2857,22.6844,256.1905,22.5685,246.0952,21.6396,236,22.3842,225.9048,21.5279,215.8095,22.0582,205.7143,21.9987,195.619,21.7376,185.5238,22.6159,175.4286,22.4433,165.3333,21.6792,155.2381,22.5266,145.1429,22.0919,135.0476,21.4164,124.9524,21.7667,114.8571,21.4747,104.7619,21.8609,94.6667,21.371,84.5714,21.3998,74.4762,22.0703,64.381,21.8796,54.2857,21.9414,44.1905,21.8568,34.0952,22,24" style="stroke: #000000; stroke-width: 1.5;"/><path d="M22,46.2969 L22,46.5771 L31.8333,45.7444 L41.6667,46.5546 L51.5,46.8298 L61.3333,45.3457 L71.1667,46.1933 L81,45.7282 L90.8333,45.7855 L100.6667,46.206 L110.5,45.375 L120.3333,47.0351 L130.1667,45.4565 L140,46.2969 " fill="#FFFFFF" style="stroke: #000000; stroke-width: 1.5;"/><text fill="#000000" font-family="sans-serif" font-size="14" font-weight="bold" lengthAdjust="spacingAndGlyphs" textLength="105" x="26" y="38.9951">quiltz.domain</text><!--cluster id--><polygon fill="#FFFFFF" filter="url(#f1ndjtv86ts3s1)" points="718,113.5,718,113.5701,722,113.3619,726,113.5644,730,113.6332,734,113.2622,738,113.5,737.9753,113.4922,739.2644,117.9168,740.678,122.3805,742.1783,126.8713,743.3801,131.2685,745,135.7969,745,136.3505,754.7727,135.1666,764.5455,135.5991,774.3182,136.2288,784.0909,135.7111,793.8636,135.8651,803.6364,135.7649,813.4091,135.9754,823.1818,136.036,832.9545,136.3826,842.7273,136.4679,852.5,136.4761,862.2727,136.0515,872.0455,136.2605,881.8182,136.4991,891.5909,135.0757,901.3636,136.4754,911.1364,135.5004,920.9091,136.3307,930.6818,135.3019,940.4545,135.7284,950.2273,136.5385,960,135.7969,959.9513,135.7969,960.1053,145.6933,960.3386,155.5897,960.4162,165.4861,959.9961,175.3825,960.2872,185.2789,959.4276,195.1753,960.2844,205.0718,960.5482,214.9682,960.4445,224.8646,960.613,234.761,959.5169,244.6574,959.3478,254.5538,959.3786,264.4502,959.9411,274.3466,959.8035,284.2431,960.6814,294.1395,959.8253,304.0359,959.6569,313.9323,960.2283,323.8287,959.3332,333.7251,959.4809,343.6215,960.649,353.5179,960.4357,363.4144,960.7345,373.3108,959.6782,383.2072,960.3192,393.1036,960,403,960,403.5904,949.9167,402.5276,939.8333,402.9041,929.75,403.126,919.6667,403.6518,909.5833,402.9958,899.5,403.4626,889.4167,402.4462,879.3333,402.3227,869.25,403.5036,859.1667,402.2831,849.0833,403.509,839,403.2066,828.9167,402.7321,818.8333,402.6462,808.75,403.4588,798.6667,402.7007,788.5833,403.5919,778.5,402.4473,768.4167,403.6174,758.3333,403.4843,748.25,403.245,738.1667,403.0472,728.0833,403.7266,718,403,718.6136,403,718.1693,393.0172,718.2682,383.0345,717.8697,373.0517,718.7165,363.069,718.1549,353.0862,718.1726,343.1034,717.3916,333.1207,717.5948,323.1379,718.5307,313.1552,718.4298,303.1724,717.9571,293.1897,717.6778,283.2069,717.7811,273.2241,717.3138,263.2414,718.4147,253.2586,718.7396,243.2759,718.5264,233.2931,718.6949,223.3103,717.8633,213.3276,718.0872,203.3448,717.6124,193.3621,718.284,183.3793,718.2468,173.3966,718.5524,163.4138,717.7703,153.431,717.8656,143.4483,718.4435,133.4655,718.5673,123.4828,718,113.5" style="stroke: #000000; stroke-width: 1.5;"/><path d="M718,135.7969 L718,135.8903 L723.4,135.6127 L728.8,135.8828 L734.2,135.9745 L739.6,135.4798 L745,135.7969 " fill="#FFFFFF" style="stroke: #000000; stroke-width: 1.5;"/><text fill="#000000" font-family="sans-serif" font-size="14" font-weight="bold" lengthAdjust="spacingAndGlyphs" textLength="14" x="722" y="128.4951">id</text><!--cluster results--><polygon fill="#FFFFFF" filter="url(#f1ndjtv86ts3s1)" points="469,113.5,469,113.7102,479.1667,113.0857,489.3333,113.6933,499.5,113.8997,509.6667,112.7866,519.8333,113.4223,530,113.5,529.8644,113.4574,531.278,117.9211,532.7783,122.4119,533.9801,126.8091,535.7761,131.3928,537,135.7969,537,135.1666,546.8125,135.5991,556.625,136.2288,566.4375,135.7111,576.25,135.8651,586.0625,135.7649,595.875,135.9754,605.6875,136.036,615.5,136.3826,625.3125,136.4679,635.125,136.4761,644.9375,136.0515,654.75,136.2605,664.5625,136.4991,674.375,135.0757,684.1875,136.4754,694,135.7969,693.7035,135.7969,694.5338,145.3848,693.505,154.9727,693.9315,164.5605,694.7416,174.1484,693.9513,183.7363,694.1053,193.3242,694.3386,202.9121,694,212.5,694,212.9162,684.2174,212.4961,674.4348,212.7872,664.6522,211.9276,654.8696,212.7844,645.087,213.0482,635.3043,212.9445,625.5217,213.113,615.7391,212.0169,605.9565,211.8478,596.1739,211.8786,586.3913,212.4411,576.6087,212.3035,566.8261,213.1814,557.0435,212.3253,547.2609,212.1569,537.4783,212.7283,527.6957,211.8332,517.913,211.9809,508.1304,213.149,498.3478,212.9357,488.5652,213.2345,478.7826,212.1782,469,212.5,469.3192,212.5,469.5904,202.6,468.5276,192.7,468.9041,182.8,469.126,172.9,469.6518,163,468.9958,153.1,469.4626,143.2,468.4462,133.3,468.3227,123.4,469,113.5" style="stroke: #000000; stroke-width: 1.5;"/><path d="M469,135.7969 L469,136.0771 L478.7143,135.2444 L488.4286,136.0546 L498.1429,136.3298 L507.8571,134.8457 L517.5714,135.6933 L527.2857,135.2282 L537,135.7969 " fill="#FFFFFF" style="stroke: #000000; stroke-width: 1.5;"/><text fill="#000000" font-family="sans-serif" font-size="14" font-weight="bold" lengthAdjust="spacingAndGlyphs" textLength="55" x="473" y="128.4951">results</text><!--cluster validator--><polygon fill="#FFFFFF" filter="url(#f1ndjtv86ts3s1)" points="248,75,248,75.2102,258.5714,74.5857,269.1429,75.1933,279.7143,75.3997,290.2857,74.2866,300.8571,74.9223,311.4286,74.5735,322,75,321.878,74.9617,323.3783,79.4526,324.5801,83.8497,326.3761,88.4334,327.3996,92.7746,329,97.2969,329,97.0991,338.8182,97.7288,348.6364,97.2111,358.4545,97.3651,368.2727,97.2649,378.0909,97.4754,387.9091,97.536,397.7273,97.8826,407.5455,97.9679,417.3636,97.9761,427.1818,97.5515,437,97.2969,437.4636,97.2969,437.7022,107.5438,436.2788,117.7906,437.6785,128.0375,436.7035,138.2844,437.5338,148.5313,436.505,158.7781,436.9315,169.025,437.7416,179.2719,436.9513,189.5188,437.1053,199.7656,437.3386,210.0125,437.4162,220.2594,436.9961,230.5063,437.2872,240.7531,437,251,437,250.4276,427.0526,251.2844,417.1053,251.5482,407.1579,251.4445,397.2105,251.613,387.2632,250.5169,377.3158,250.3478,367.3684,250.3786,357.4211,250.9411,347.4737,250.8035,337.5263,251.6814,327.5789,250.8253,317.6316,250.6569,307.6842,251.2283,297.7368,250.3332,287.7895,250.4809,277.8421,251.649,267.8947,251.4357,257.9474,251.7345,248,251,247.6782,251,248.3192,241.2222,248.5904,231.4444,247.5276,221.6667,247.9041,211.8889,248.126,202.1111,248.6518,192.3333,247.9958,182.5556,248.4626,172.7778,247.4462,163,247.3227,153.2222,248.5036,143.4444,247.2831,133.6667,248.509,123.8889,248.2066,114.1111,247.7321,104.3333,247.6462,94.5556,248.4588,84.7778,248,75" style="stroke: #000000; stroke-width: 1.5;"/><path d="M248,97.2969 L248,97.5771 L258.125,96.7444 L268.25,97.5546 L278.375,97.8298 L288.5,96.3457 L298.625,97.1933 L308.75,96.7282 L318.875,96.7855 L329,97.2969 " fill="#FFFFFF" style="stroke: #000000; stroke-width: 1.5;"/><text fill="#000000" font-family="sans-serif" font-size="14" font-weight="bold" lengthAdjust="spacingAndGlyphs" textLength="68" x="252" y="89.9951">validator</text><!--cluster parsers--><polygon fill="#FFFFFF" filter="url(#f1ndjtv86ts3s1)" points="248,291,248,291.2102,257.5714,290.5857,267.1429,291.1933,276.7143,291.3997,286.2857,290.2866,295.8571,290.9223,305.4286,290.5735,315,291,314.878,290.9617,316.3783,295.4526,317.5801,299.8497,319.3761,304.4334,320.3996,308.7746,322,313.2969,322,313.0991,332.3,313.7288,342.6,313.2111,352.9,313.3651,363.2,313.2649,373.5,313.4754,383.8,313.536,394.1,313.8826,404.4,313.9679,414.7,313.9761,425,313.2969,425.2546,313.2969,425.4636,323.5672,425.7022,333.8375,424.2788,344.1078,425.6785,354.3781,424.7035,364.6484,425.5338,374.9188,424.505,385.1891,424.9315,395.4594,425.7416,405.7297,425,416,425,415.9513,415.1667,416.1053,405.3333,416.3386,395.5,416.4162,385.6667,415.9961,375.8333,416.2872,366,415.4276,356.1667,416.2844,346.3333,416.5482,336.5,416.4445,326.6667,416.613,316.8333,415.5169,307,415.3478,297.1667,415.3786,287.3333,415.9411,277.5,415.8035,267.6667,416.6814,257.8333,415.8253,248,416,247.6569,416,248.2283,406.3846,247.3332,396.7692,247.4809,387.1538,248.649,377.5385,248.4357,367.9231,248.7345,358.3077,247.6782,348.6923,248.3192,339.0769,248.5904,329.4615,247.5276,319.8462,247.9041,310.2308,248.126,300.6154,248,291" style="stroke: #000000; stroke-width: 1.5;"/><path d="M248,313.2969 L248,313.5771 L258.5714,312.7444 L269.1429,313.5546 L279.7143,313.8298 L290.2857,312.3457 L300.8571,313.1933 L311.4286,312.7282 L322,313.2969 " fill="#FFFFFF" style="stroke: #000000; stroke-width: 1.5;"/><text fill="#000000" font-family="sans-serif" font-size="14" font-weight="bold" lengthAdjust="spacingAndGlyphs" textLength="61" x="252" y="305.9951">parsers</text><!--cluster anonymizer--><polygon fill="#FFFFFF" filter="url(#f1ndjtv86ts3s1)" points="46,115,46,115.2102,55.8,114.5857,65.6,115.1933,75.4,115.3997,85.2,114.2866,95,114.9223,104.8,114.5735,114.6,114.6165,124.4,114.9318,134.2,114.3086,144,115,144.1761,115.0553,145.1996,119.3964,146.7371,123.899,148.3374,128.4213,149.5727,132.8289,151,137.2969,151,137.3651,160.2857,137.2649,169.5714,137.4754,178.8571,137.536,188.1429,137.8826,197.4286,137.9679,206.7143,137.9761,216,137.2969,216.2546,137.2969,216.4636,147.8259,216.7022,158.3549,215.2788,168.8839,216.6785,179.4129,215.7035,189.942,216.5338,200.471,216,211,216,210.505,206,210.9315,196,211.7416,186,210.9513,176,211.1053,166,211.3386,156,211.4162,146,210.9961,136,211.2872,126,210.4276,116,211.2844,106,211.5482,96,211.4445,86,211.613,76,210.5169,66,210.3478,56,210.3786,46,211,45.9411,211,45.8035,201.4,46.6814,191.8,45.8253,182.2,45.6569,172.6,46.2283,163,45.3332,153.4,45.4809,143.8,46.649,134.2,46.4357,124.6,46,115" style="stroke: #000000; stroke-width: 1.5;"/><path d="M46,137.2969 L46,137.5771 L55.5455,136.7444 L65.0909,137.5546 L74.6364,137.8298 L84.1818,136.3457 L93.7273,137.1933 L103.2727,136.7282 L112.8182,136.7855 L122.3636,137.206 L131.9091,136.375 L141.4545,138.0351 L151,137.2969 " fill="#FFFFFF" style="stroke: #000000; stroke-width: 1.5;"/><text fill="#000000" font-family="sans-serif" font-size="14" font-weight="bold" lengthAdjust="spacingAndGlyphs" textLength="92" x="50" y="129.9951">anonymizer</text><!--class ID--><polygon fill="#F8F8F8" filter="url(#f1ndjtv86ts3s1)" points="757,148.5,757,148.5701,765.8,148.3619,774.6,148.5644,783.4,148.6332,792.2,148.2622,801,148.5,800.9223,148.5,800.5735,158.1,800.6165,167.7,800.9318,177.3,800.3086,186.9,801,196.5,801,196.6845,792.2,196.2899,783.4,196.4341,774.6,196.644,765.8,196.4714,757,196.5,757.0682,196.5,756.9681,186.9,757.1785,177.3,757.2391,167.7,757.5857,158.1,757,148.5" style="stroke: #383838; stroke-width: 1.5;"/><polygon fill="#C2C2C2" points="783.0608,167.1756,781.4484,169.3788,779.5412,172.6057,776.8136,174.7804,773.9474,175.9696,771.662,176.0728,768.7247,174.5855,765.9532,173.6139,763.8495,171.6412,762.7461,169.3828,762.0917,167.5845,761.4506,165.2357,760.41,163.2145,761.2096,161.241,761.9102,159.0792,764.5393,157.3695,766.389,155.1511,768.6784,154.4144,771.4001,153.7801,774.8904,154.157,776.8021,155.0585,779.0247,155.4672,781.7272,158.236,782.6693,161.159,783.0786,163.1534,782.615,166.4399" style="stroke: #383838; stroke-width: 1.0;"/><path d="M774.9688,170.1406 Q774.3906,170.4375 773.75,170.5781 Q773.1094,170.7344 772.4063,170.7344 Q769.9063,170.7344 768.5781,169.0938 Q767.2656,167.4375 767.2656,164.3125 Q767.2656,161.1875 768.5781,159.5313 Q769.9063,157.875 772.4063,157.875 Q773.1094,157.875 773.75,158.0313 Q774.4063,158.1875 774.9688,158.4844 L774.9688,161.2031 Q774.3438,160.625 773.75,160.3594 Q773.1563,160.0781 772.5313,160.0781 Q771.1875,160.0781 770.5,161.1563 Q769.8125,162.2188 769.8125,164.3125 Q769.8125,166.4063 770.5,167.4844 Q771.1875,168.5469 772.5313,168.5469 Q773.1563,168.5469 773.75,168.2813 Q774.3438,168 774.9688,167.4219 L774.9688,170.1406 Z "/><text fill="#000000" font-family="sans-serif" font-size="12" lengthAdjust="spacingAndGlyphs" textLength="12" x="786" y="168.6543">ID</text><path d="M758,180.5 L758,180.5934 L766.4,180.3159 L774.8,180.5859 L783.2,180.6776 L791.6,180.1829 L800,180.5 " fill="#F8F8F8" style="stroke: #383838; stroke-width: 1.5;"/><path d="M758,188.5 L758,188.5934 L766.4,188.3159 L774.8,188.5859 L783.2,188.6776 L791.6,188.1829 L800,188.5 " fill="#F8F8F8" style="stroke: #383838; stroke-width: 1.5;"/><!--class IDGenerator--><polygon fill="#F8F8F8" filter="url(#f1ndjtv86ts3s1)" points="836,148.5,836,148.7102,845.8182,148.0857,855.6364,148.6933,865.4545,148.8997,875.2727,147.7866,885.0909,148.4223,894.9091,148.0735,904.7273,148.1165,914.5455,148.4318,924.3636,147.8086,934.1818,149.0536,944,148.5,943.3697,148.5,943.8022,158.1,944.4319,167.7,943.9142,177.3,944.0682,186.9,944,196.5,944,196.4681,934.1818,196.6785,924.3636,196.7391,914.5455,197.0857,904.7273,197.1711,894.9091,197.1793,885.0909,196.7546,875.2727,196.9636,865.4545,197.2022,855.6364,195.7788,845.8182,197.1785,836,196.5,835.7035,196.5,836.5338,186.9,835.505,177.3,835.9315,167.7,836.7416,158.1,836,148.5" style="stroke: #383838; stroke-width: 1.5;"/><polygon fill="#C2C2C2" points="862.0608,167.1756,860.4484,169.3788,858.5412,172.6057,855.8136,174.7804,852.9474,175.9696,850.662,176.0728,847.7247,174.5855,844.9532,173.6139,842.8495,171.6412,841.7461,169.3828,841.0917,167.5845,840.4506,165.2357,839.41,163.2145,840.2096,161.241,840.9102,159.0792,843.5393,157.3695,845.389,155.1511,847.6784,154.4144,850.4001,153.7801,853.8904,154.157,855.8021,155.0585,858.0247,155.4672,860.7272,158.236,861.6693,161.159,862.0786,163.1534,861.615,166.4399" style="stroke: #383838; stroke-width: 1.0;"/><path d="M853.9688,170.1406 Q853.3906,170.4375 852.75,170.5781 Q852.1094,170.7344 851.4063,170.7344 Q848.9063,170.7344 847.5781,169.0938 Q846.2656,167.4375 846.2656,164.3125 Q846.2656,161.1875 847.5781,159.5313 Q848.9063,157.875 851.4063,157.875 Q852.1094,157.875 852.75,158.0313 Q853.4063,158.1875 853.9688,158.4844 L853.9688,161.2031 Q853.3438,160.625 852.75,160.3594 Q852.1563,160.0781 851.5313,160.0781 Q850.1875,160.0781 849.5,161.1563 Q848.8125,162.2188 848.8125,164.3125 Q848.8125,166.4063 849.5,167.4844 Q850.1875,168.5469 851.5313,168.5469 Q852.1563,168.5469 852.75,168.2813 Q853.3438,168 853.9688,167.4219 L853.9688,170.1406 Z "/><text fill="#000000" font-family="sans-serif" font-size="12" lengthAdjust="spacingAndGlyphs" textLength="76" x="865" y="168.6543">IDGenerator</text><path d="M837,180.5 L837,180.7802 L846.6364,179.9476 L856.2727,180.7577 L865.9091,181.0329 L875.5455,179.5488 L885.1818,180.3964 L894.8182,179.9313 L904.4545,179.9887 L914.0909,180.4091 L923.7273,179.5782 L933.3636,181.2382 L943,180.5 " fill="#F8F8F8" style="stroke: #383838; stroke-width: 1.5;"/><path d="M837,188.5 L837,188.7802 L846.6364,187.9476 L856.2727,188.7577 L865.9091,189.0329 L875.5455,187.5488 L885.1818,188.3964 L894.8182,187.9313 L904.4545,187.9887 L914.0909,188.4091 L923.7273,187.5782 L933.3636,189.2382 L943,188.5 " fill="#F8F8F8" style="stroke: #383838; stroke-width: 1.5;"/><!--class FixedIDGeneratorGenerating--><polygon fill="#F8F8F8" filter="url(#f1ndjtv86ts3s1)" points="734,339,734,339.2102,744,338.5857,754,339.1933,764,339.3997,774,338.2866,784,338.9223,794,338.5735,804,338.6165,814,338.9318,824,338.3086,834,339.5536,844,338.3697,854,338.8022,864,339.4319,874,338.9142,884,339.0682,894,338.9681,904,339.1785,914,339.2391,924,339.5857,934,339.6711,944,339,944.6793,339,944.2546,348.6,944.4636,358.2,944.7022,367.8,943.2788,377.4,944,387,944,387.6785,934,386.7035,924,387.5338,914,386.505,904,386.9315,894,387.7416,884,386.9513,874,387.1053,864,387.3386,854,387.4162,844,386.9961,834,387.2872,824,386.4276,814,387.2844,804,387.5482,794,387.4445,784,387.613,774,386.5169,764,386.3478,754,386.3786,744,386.9411,734,387,733.8035,387,734.6814,377.4,733.8253,367.8,733.6569,358.2,734.2283,348.6,734,339" style="stroke: #383838; stroke-width: 1.5;"/><polygon fill="#C2C2C2" points="760.0608,357.6756,758.4484,359.8788,756.5412,363.1057,753.8136,365.2804,750.9474,366.4696,748.662,366.5728,745.7247,365.0855,742.9532,364.1139,740.8495,362.1412,739.7461,359.8828,739.0917,358.0845,738.4506,355.7357,737.41,353.7145,738.2096,351.741,738.9102,349.5792,741.5393,347.8695,743.389,345.6511,745.6784,344.9144,748.4001,344.2801,751.8904,344.657,753.8021,345.5585,756.0247,345.9672,758.7272,348.736,759.6693,351.659,760.0786,353.6534,759.615,356.9399" style="stroke: #383838; stroke-width: 1.0;"/><path d="M751.9688,360.6406 Q751.3906,360.9375 750.75,361.0781 Q750.1094,361.2344 749.4063,361.2344 Q746.9063,361.2344 745.5781,359.5938 Q744.2656,357.9375 744.2656,354.8125 Q744.2656,351.6875 745.5781,350.0313 Q746.9063,348.375 749.4063,348.375 Q750.1094,348.375 750.75,348.5313 Q751.4063,348.6875 751.9688,348.9844 L751.9688,351.7031 Q751.3438,351.125 750.75,350.8594 Q750.1563,350.5781 749.5313,350.5781 Q748.1875,350.5781 747.5,351.6563 Q746.8125,352.7188 746.8125,354.8125 Q746.8125,356.9063 747.5,357.9844 Q748.1875,359.0469 749.5313,359.0469 Q750.1563,359.0469 750.75,358.7813 Q751.3438,358.5 751.9688,357.9219 L751.9688,360.6406 Z "/><text fill="#000000" font-family="sans-serif" font-size="12" lengthAdjust="spacingAndGlyphs" textLength="178" x="763" y="359.1543">FixedIDGeneratorGenerating</text><path d="M735,371 L735,371.2802 L744.9048,370.4476 L754.8095,371.2577 L764.7143,371.5329 L774.619,370.0488 L784.5238,370.8964 L794.4286,370.4313 L804.3333,370.4887 L814.2381,370.9091 L824.1429,370.0782 L834.0476,371.7382 L843.9524,370.1596 L853.8571,370.7363 L863.7619,371.5759 L873.6667,370.8856 L883.5714,371.091 L893.4762,370.9574 L903.381,371.238 L913.2857,371.3188 L923.1905,371.7809 L933.0952,371.8947 L943,371 " fill="#F8F8F8" style="stroke: #383838; stroke-width: 1.5;"/><path d="M735,379 L735,379.2802 L744.9048,378.4476 L754.8095,379.2577 L764.7143,379.5329 L774.619,378.0488 L784.5238,378.8964 L794.4286,378.4313 L804.3333,378.4887 L814.2381,378.9091 L824.1429,378.0782 L834.0476,379.7382 L843.9524,378.1596 L853.8571,378.7363 L863.7619,379.5759 L873.6667,378.8856 L883.5714,379.091 L893.4762,378.9574 L903.381,379.238 L913.2857,379.3188 L923.1905,379.7809 L933.0952,379.8947 L943,379 " fill="#F8F8F8" style="stroke: #383838; stroke-width: 1.5;"/><!--class Success--><polygon fill="#F8F8F8" filter="url(#f1ndjtv86ts3s1)" points="594,148.5,594,148.7102,604.5,148.0857,615,148.6933,625.5,148.8997,636,147.7866,646.5,148.4223,657,148.0735,667.5,148.1165,678,148.5,677.9318,148.5,677.3086,158.1,678.5536,167.7,677.3697,177.3,677.8022,186.9,678,196.5,678,196.9319,667.5,196.4142,657,196.5682,646.5,196.4681,636,196.6785,625.5,196.7391,615,197.0857,604.5,197.1711,594,196.5,594.6793,196.5,594.2546,186.9,594.4636,177.3,594.7022,167.7,593.2788,158.1,594,148.5" style="stroke: #383838; stroke-width: 1.5;"/><polygon fill="#C2C2C2" points="620.0608,167.1756,618.4484,169.3788,616.5412,172.6057,613.8136,174.7804,610.9474,175.9696,608.662,176.0728,605.7247,174.5855,602.9532,173.6139,600.8495,171.6412,599.7461,169.3828,599.0917,167.5845,598.4506,165.2357,597.41,163.2145,598.2096,161.241,598.9102,159.0792,601.5393,157.3695,603.389,155.1511,605.6784,154.4144,608.4001,153.7801,611.8904,154.157,613.8021,155.0585,616.0247,155.4672,618.7272,158.236,619.6693,161.159,620.0786,163.1534,619.615,166.4399" style="stroke: #383838; stroke-width: 1.0;"/><path d="M611.9688,170.1406 Q611.3906,170.4375 610.75,170.5781 Q610.1094,170.7344 609.4063,170.7344 Q606.9063,170.7344 605.5781,169.0938 Q604.2656,167.4375 604.2656,164.3125 Q604.2656,161.1875 605.5781,159.5313 Q606.9063,157.875 609.4063,157.875 Q610.1094,157.875 610.75,158.0313 Q611.4063,158.1875 611.9688,158.4844 L611.9688,161.2031 Q611.3438,160.625 610.75,160.3594 Q610.1563,160.0781 609.5313,160.0781 Q608.1875,160.0781 607.5,161.1563 Q606.8125,162.2188 606.8125,164.3125 Q606.8125,166.4063 607.5,167.4844 Q608.1875,168.5469 609.5313,168.5469 Q610.1563,168.5469 610.75,168.2813 Q611.3438,168 611.9688,167.4219 L611.9688,170.1406 Z "/><text fill="#000000" font-family="sans-serif" font-size="12" lengthAdjust="spacingAndGlyphs" textLength="52" x="623" y="168.6543">Success</text><path d="M595,180.5 L595,180.7802 L605.25,179.9476 L615.5,180.7577 L625.75,181.0329 L636,179.5488 L646.25,180.3964 L656.5,179.9313 L666.75,179.9887 L677,180.5 " fill="#F8F8F8" style="stroke: #383838; stroke-width: 1.5;"/><path d="M595,188.5 L595,188.7802 L605.25,187.9476 L615.5,188.7577 L625.75,189.0329 L636,187.5488 L646.25,188.3964 L656.5,187.9313 L666.75,187.9887 L677,188.5 " fill="#F8F8F8" style="stroke: #383838; stroke-width: 1.5;"/><!--class Failure--><polygon fill="#F8F8F8" filter="url(#f1ndjtv86ts3s1)" points="485,148.5,485,148.7102,495.5714,148.0857,506.1429,148.6933,516.7143,148.8997,527.2857,147.7866,537.8571,148.4223,548.4286,148.0735,559,148.5,558.6165,148.5,558.9318,158.1,558.3086,167.7,559.5536,177.3,558.3697,186.9,559,196.5,559,196.3022,548.4286,196.9319,537.8571,196.4142,527.2857,196.5682,516.7143,196.4681,506.1429,196.6785,495.5714,196.7391,485,196.5,485.5857,196.5,485.6711,186.9,485.6793,177.3,485.2546,167.7,485.4636,158.1,485,148.5" style="stroke: #383838; stroke-width: 1.5;"/><polygon fill="#C2C2C2" points="511.0608,167.1756,509.4484,169.3788,507.5412,172.6057,504.8136,174.7804,501.9474,175.9696,499.662,176.0728,496.7247,174.5855,493.9532,173.6139,491.8495,171.6412,490.7461,169.3828,490.0917,167.5845,489.4506,165.2357,488.41,163.2145,489.2096,161.241,489.9102,159.0792,492.5393,157.3695,494.389,155.1511,496.6784,154.4144,499.4001,153.7801,502.8904,154.157,504.8021,155.0585,507.0247,155.4672,509.7272,158.236,510.6693,161.159,511.0786,163.1534,510.615,166.4399" style="stroke: #383838; stroke-width: 1.0;"/><path d="M502.9688,170.1406 Q502.3906,170.4375 501.75,170.5781 Q501.1094,170.7344 500.4063,170.7344 Q497.9063,170.7344 496.5781,169.0938 Q495.2656,167.4375 495.2656,164.3125 Q495.2656,161.1875 496.5781,159.5313 Q497.9063,157.875 500.4063,157.875 Q501.1094,157.875 501.75,158.0313 Q502.4063,158.1875 502.9688,158.4844 L502.9688,161.2031 Q502.3438,160.625 501.75,160.3594 Q501.1563,160.0781 500.5313,160.0781 Q499.1875,160.0781 498.5,161.1563 Q497.8125,162.2188 497.8125,164.3125 Q497.8125,166.4063 498.5,167.4844 Q499.1875,168.5469 500.5313,168.5469 Q501.1563,168.5469 501.75,168.2813 Q502.3438,168 502.9688,167.4219 L502.9688,170.1406 Z "/><text fill="#000000" font-family="sans-serif" font-size="12" lengthAdjust="spacingAndGlyphs" textLength="42" x="514" y="168.6543">Failure</text><path d="M486,180.5 L486,180.7802 L496.2857,179.9476 L506.5714,180.7577 L516.8571,181.0329 L527.1429,179.5488 L537.4286,180.3964 L547.7143,179.9313 L558,180.5 " fill="#F8F8F8" style="stroke: #383838; stroke-width: 1.5;"/><path d="M486,188.5 L486,188.7802 L496.2857,187.9476 L506.5714,188.7577 L516.8571,189.0329 L527.1429,187.5488 L537.4286,188.3964 L547.7143,187.9313 L558,188.5 " fill="#F8F8F8" style="stroke: #383838; stroke-width: 1.5;"/><!--class validator-functions--><polygon fill="#F8F8F8" filter="url(#f1ndjtv86ts3s1)" points="291,118,291,118.2102,301.1667,117.5857,311.3333,118.1933,321.5,118.3997,331.6667,117.2866,341.8333,117.9223,352,117.5735,362.1667,117.6165,372.3333,117.9318,382.5,117.3086,392.6667,118.5536,402.8333,117.3697,413,118,412.8022,118,413.4319,127.8906,412.9142,137.7813,413.0682,147.6719,412.9681,157.5625,413.1785,167.4531,413.2391,177.3438,413.5857,187.2344,413.6711,197.125,413.6793,207.0156,413.2546,216.9063,413,226.7969,413,227.2605,402.8333,227.4991,392.6667,226.0757,382.5,227.4754,372.3333,226.5004,362.1667,227.3307,352,226.3019,341.8333,226.7284,331.6667,227.5385,321.5,226.7481,311.3333,226.9022,301.1667,227.1355,291,226.7969,291.4162,226.7969,290.9961,216.9063,291.2872,207.0156,290.4276,197.125,291.2844,187.2344,291.5482,177.3438,291.4445,167.4531,291.613,157.5625,290.5169,147.6719,290.3478,137.7813,290.3786,127.8906,291,118" style="stroke: #383838; stroke-width: 1.5;"/><text fill="#000000" font-family="sans-serif" font-size="12" lengthAdjust="spacingAndGlyphs" textLength="116" x="294" y="134.1387">validator-functions</text><path d="M292,141.9688 L292,142.249 L302,141.4163 L312,142.2265 L322,142.5017 L332,141.0176 L342,141.8651 L352,141.4001 L362,141.4574 L372,141.8779 L382,141.0469 L392,142.7069 L402,141.1284 L412,141.9688 " fill="#F8F8F8" style="stroke: #383838; stroke-width: 1.5;"/><text fill="#000000" font-family="sans-serif" font-size="11" lengthAdjust="spacingAndGlyphs" textLength="52" x="297" y="156.1792">validate()</text><text fill="#000000" font-family="sans-serif" font-size="11" lengthAdjust="spacingAndGlyphs" textLength="83" x="297" y="168.9839">optionality_of()</text><text fill="#000000" font-family="sans-serif" font-size="11" lengthAdjust="spacingAndGlyphs" textLength="90" x="297" y="181.7886">max_length_of()</text><text fill="#000000" font-family="sans-serif" font-size="11" lengthAdjust="spacingAndGlyphs" textLength="72" x="297" y="194.5933">is_between()</text><text fill="#000000" font-family="sans-serif" font-size="11" lengthAdjust="spacingAndGlyphs" textLength="87" x="297" y="207.3979">conversion_of()</text><text fill="#000000" font-family="sans-serif" font-size="11" lengthAdjust="spacingAndGlyphs" textLength="89" x="297" y="220.2026">an_attempt_to()</text><!--class parser-functions--><polygon fill="#F8F8F8" filter="url(#f1ndjtv86ts3s1)" points="291.5,334,291.5,334.2102,301.4091,333.5857,311.3182,334.1933,321.2273,334.3997,331.1364,333.2866,341.0455,333.9223,350.9545,333.5735,360.8636,333.6165,370.7727,333.9318,380.6818,333.3086,390.5909,334.5536,400.5,334,399.8697,334,400.3022,343.5964,400.9319,353.1927,400.4142,362.7891,400.5682,372.3854,400.4681,381.9818,400.5,391.5781,400.5,391.7567,390.5909,391.8173,380.6818,392.1638,370.7727,392.2492,360.8636,392.2574,350.9545,391.8328,341.0455,392.0417,331.1364,392.2804,321.2273,390.8569,311.3182,392.2566,301.4091,391.2816,291.5,391.5781,292.0338,391.5781,291.005,381.9818,291.4315,372.3854,292.2416,362.7891,291.4513,353.1927,291.6053,343.5964,291.5,334" style="stroke: #383838; stroke-width: 1.5;"/><text fill="#000000" font-family="sans-serif" font-size="12" lengthAdjust="spacingAndGlyphs" textLength="103" x="294.5" y="350.1387">parser-functions</text><path d="M292.5,357.9688 L292.5,358.249 L302.2273,357.4163 L311.9545,358.2265 L321.6818,358.5017 L331.4091,357.0176 L341.1364,357.8651 L350.8636,357.4001 L360.5909,357.4574 L370.3182,357.8779 L380.0455,357.0469 L389.7727,358.7069 L399.5,357.9688 " fill="#F8F8F8" style="stroke: #383838; stroke-width: 1.5;"/><text fill="#000000" font-family="sans-serif" font-size="11" lengthAdjust="spacingAndGlyphs" textLength="89" x="297.5" y="372.1792">date_from_iso()</text><text fill="#000000" font-family="sans-serif" font-size="11" lengthAdjust="spacingAndGlyphs" textLength="94" x="297.5" y="384.9839">int_from_string()</text><!--class anonymizer-functions--><polygon fill="#F8F8F8" filter="url(#f1ndjtv86ts3s1)" points="62,150,62,150.2102,71.8571,149.5857,81.7143,150.1933,91.5714,150.3997,101.4286,149.2866,111.2857,149.9223,121.1429,149.5735,131,149.6165,140.8571,149.9318,150.7143,149.3086,160.5714,150.5536,170.4286,149.3697,180.2857,149.8022,190.1429,150.4319,200,150,199.9714,150,200.0227,158.9547,199.9894,167.9094,200.0595,176.8641,200.0797,185.8188,200,194.7734,200,195.3591,190.1429,195.4445,180.2857,195.4527,170.4286,195.0281,160.5714,195.237,150.7143,195.4757,140.8571,194.0523,131,195.4519,121.1429,194.4769,111.2857,195.3072,101.4286,194.2784,91.5714,194.7049,81.7143,195.515,71.8571,194.7247,62,194.7734,62.0351,194.7734,62.1129,185.8188,62.1387,176.8641,61.9987,167.9094,62.0957,158.9547,62,150" style="stroke: #383838; stroke-width: 1.5;"/><text fill="#000000" font-family="sans-serif" font-size="12" lengthAdjust="spacingAndGlyphs" textLength="132" x="65" y="166.1387">anonymizer-functions</text><path d="M63,173.9688 L63,174.249 L72.7143,173.4163 L82.4286,174.2265 L92.1429,174.5017 L101.8571,173.0176 L111.5714,173.8651 L121.2857,173.4001 L131,173.4574 L140.7143,173.8779 L150.4286,173.0469 L160.1429,174.7069 L169.8571,173.1284 L179.5714,173.7051 L189.2857,174.5447 L199,173.9688 " fill="#F8F8F8" style="stroke: #383838; stroke-width: 1.5;"/><text fill="#000000" font-family="sans-serif" font-size="11" lengthAdjust="spacingAndGlyphs" textLength="68" x="68" y="188.1792">anonymize()</text><!--link validator to parsers--><!--link ID to IDGenerator--><!--link ID to FixedIDGeneratorGenerating--><!--
@startuml domain-lib
skinparam {
  handwritten true
  monochrome true
}
hide <<functions>> circle
hide <<functions>> attributes
hide <<functions>> stereotype
package quiltz.domain {
  package id {
    class ID
    class IDGenerator
    class FixedIDGeneratorGenerating
  }
  package results {
    class Success
    class Failure
  }
  package validator {
    class validator-functions <<functions>> {
      validate()
      optionality_of()
      max_length_of()
      is_between()
      conversion_of()
      an_attempt_to()
    }
  }
  package parsers {
    class parser-functions <<functions>> {
      date_from_iso()
      int_from_string()
    }
  }
  package anonymizer {
    class anonymizer-functions <<functions>> {
      anonymize()
    }
  }
}
validator +-[hidden]- parsers
@enduml

PlantUML version 1.2018.13(Mon Nov 26 18:11:51 CET 2018)
(GPL source distribution)
Java Runtime: OpenJDK Runtime Environment
JVM: OpenJDK 64-Bit Server VM
Java Version: 13.0.3+3-MTS
Operating System: Linux
OS Version: 5.4.0-52-generic
Default Encoding: UTF-8
Language: en
Country: US
--></g></svg>