<?xml version="1.0" encoding="UTF-8" standalone="no"?><svg xmlns="http://www.w3.org/2000/svg" xmlns:xlink="http://www.w3.org/1999/xlink" contentScriptType="application/ecmascript" contentStyleType="text/css" height="450px" preserveAspectRatio="none" style="width:1170px;height:450px;" version="1.1" viewBox="0 0 1170 450" width="1170px" zoomAndPan="magnify"><defs><filter height="300%" id="fswxy91rm4crj" width="300%" x="-1" y="-1"><feGaussianBlur result="blurOut" stdDeviation="2.0"/><feColorMatrix in="blurOut" result="blurOut2" type="matrix" values="0 0 0 0 0 0 0 0 0 0 0 0 0 0 0 0 0 0 .4 0"/><feOffset dx="4.0" dy="4.0" in="blurOut2" result="blurOut3"/><feBlend in="SourceGraphic" in2="blurOut3" mode="normal"/></filter></defs><g><!--cluster quiltz.domain--><polygon fill="#FFFFFF" filter="url(#fswxy91rm4crj)" points="22,24,22,24.2102,32.0909,23.5857,42.1818,24.1933,52.2727,24.3997,62.3636,23.2866,72.4545,23.9223,82.5455,23.5735,92.6364,23.6165,102.7273,23.9318,112.8182,23.3086,122.9091,24.5536,133,24,132.7996,23.9371,134.3371,28.4396,135.9374,32.9619,137.1727,37.3696,138.6217,41.8443,140,46.2969,140,46.2649,149.9802,46.4754,159.9604,46.536,169.9406,46.8826,179.9208,46.9679,189.901,46.9761,199.8812,46.5515,209.8614,46.7605,219.8416,46.9991,229.8218,45.5757,239.802,46.9754,249.7822,46.0004,259.7624,46.8307,269.7426,45.8019,279.7228,46.2284,289.703,47.0385,299.6832,46.2481,309.6634,46.4022,319.6436,46.6355,329.6238,46.7131,339.604,46.293,349.5842,46.5841,359.5644,45.7245,369.5446,46.5813,379.5248,46.8451,389.505,46.7414,399.4851,46.9099,409.4653,45.8138,419.4455,45.6447,429.4257,45.6755,439.4059,46.238,449.3861,46.1003,459.3663,46.9783,469.3465,46.1222,479.3267,45.9538,489.3069,46.5251,499.2871,45.63,509.2673,45.7777,519.2475,46.9458,529.2277,46.7325,539.2079,47.0314,549.1881,45.9751,559.1683,46.6161,569.1485,46.8873,579.1287,45.8245,589.1089,46.201,599.0891,46.4229,609.0693,46.9486,619.0495,46.2927,629.0297,46.7594,639.0099,45.7431,648.9901,45.6196,658.9703,46.8005,668.9505,45.5799,678.9307,46.8058,688.9109,46.5035,698.8911,46.029,708.8713,45.9431,718.8515,46.7556,728.8317,45.9975,738.8119,46.8887,748.7921,45.7441,758.7723,46.9143,768.7525,46.7812,778.7327,46.5418,788.7129,46.3441,798.6931,47.0235,808.6733,46.9105,818.6535,46.4661,828.6337,46.5651,838.6139,46.1666,848.5941,47.0133,858.5743,46.4517,868.5545,46.4694,878.5347,45.6885,888.5149,45.8917,898.495,46.8276,908.4752,46.7266,918.4554,46.2539,928.4356,45.9747,938.4158,46.0779,948.396,45.6107,958.3762,46.7116,968.3564,47.0364,978.3366,46.8233,988.3168,46.9918,998.297,46.1601,1008.2772,46.3841,1018.2574,45.9093,1028.2376,46.5809,1038.2178,46.5436,1048.198,46.8493,1058.1782,46.0672,1068.1584,46.1625,1078.1386,46.7403,1088.1188,46.8642,1098.099,45.7843,1108.0792,46.103,1118.0594,46.4461,1128.0396,45.686,1138.0198,46.6503,1148,46.2969,1148.258,46.2969,1147.8992,56.3405,1148.1422,66.3842,1148.7287,76.4279,1147.6871,86.4716,1148.315,96.5152,1148.2856,106.5589,1148.1158,116.6026,1148.1409,126.6462,1148.1135,136.6899,1147.3758,146.7336,1147.5992,156.7772,1147.5385,166.8209,1148.0638,176.8646,1148.0881,186.9083,1148.1617,196.9519,1147.709,206.9956,1147.9325,217.0393,1147.8798,227.0829,1148.5769,237.1266,1148.4266,247.1703,1147.5145,257.2139,1147.9271,267.2576,1147.4228,277.3013,1148.2884,287.345,1148.6085,297.3886,1148.5446,307.4323,1147.5644,317.476,1148.464,327.5196,1147.2572,337.5633,1148.2002,347.607,1147.7007,357.6506,1148.0967,367.6943,1148.2403,377.738,1148.4721,387.7817,1147.2801,397.8253,1148.4755,407.869,1148.1782,417.9127,1148.3553,427.9563,1148,438,1148,438.7478,1138.0354,438.0055,1128.0708,438.1753,1118.1062,438.2134,1108.1416,438.1972,1098.177,437.9992,1088.2124,438.7107,1078.2478,437.3903,1068.2832,438.5653,1058.3186,437.376,1048.354,437.4597,1038.3894,438.04,1028.4248,438.0283,1018.4602,437.5072,1008.4956,438.4137,998.531,438.1089,988.5664,438.7267,978.6018,438.6671,968.6372,437.5517,958.6726,437.6021,948.708,437.8708,938.7434,438.3555,928.7788,438.403,918.8142,438.3012,908.8496,437.658,898.885,438.6364,888.9204,438.6338,878.9558,437.9527,868.9912,437.7609,859.0265,437.5986,849.0619,437.7854,839.0973,438.1374,829.1327,437.9316,819.1681,437.5822,809.2035,438.4874,799.2389,437.5411,789.2743,438.5024,779.3097,438.4272,769.3451,438.3719,759.3805,438.6925,749.4159,437.7541,739.4513,437.6994,729.4867,438.5189,719.5221,437.4031,709.5575,437.766,699.5929,438.1155,689.6283,438.0687,679.6637,437.6415,669.6991,437.957,659.7345,438.7446,649.7699,438.6485,639.8053,437.4037,629.8407,438.0785,619.8761,437.4861,609.9115,437.9737,599.9469,438.293,589.9823,438.4199,580.0177,437.3353,570.0531,438.4005,560.0885,438.0084,550.1239,437.4447,540.1593,437.5289,530.1947,438.3266,520.2301,438.2499,510.2655,437.9836,500.3009,437.3279,490.3363,438.6581,480.3717,437.6882,470.4071,437.4719,460.4425,437.9327,450.4779,438.5897,440.5133,438.6154,430.5487,438.0351,420.5841,437.8488,410.6195,438.1698,400.6549,438.1862,390.6903,437.4922,380.7257,438.414,370.7611,438.5588,360.7965,437.7842,350.8319,437.5708,340.8673,438.6746,330.9027,438.021,320.9381,437.9998,310.9735,438.299,301.0088,437.3543,291.0442,438.53,281.0796,437.9846,271.115,438.6688,261.1504,437.7841,251.1858,438.409,241.2212,437.556,231.2566,438.245,221.292,438.3793,211.3274,437.6727,201.3628,438.363,191.3982,437.4286,181.4336,437.5295,171.469,438.6828,161.5044,438.6844,151.5398,438.5685,141.5752,437.6396,131.6106,438.3842,121.646,437.5279,111.6814,438.0582,101.7168,437.9987,91.7522,437.7376,81.7876,438.6159,71.823,438.4433,61.8584,437.6792,51.8938,438.5266,41.9292,438.0919,31.9646,437.4164,22,438,21.7667,438,21.4747,427.9024,21.8609,417.8049,21.371,407.7073,21.3998,397.6098,22.0703,387.5122,21.8796,377.4146,21.9414,367.3171,21.8568,357.2195,22.1673,347.122,21.4449,337.0244,22.1601,326.9268,21.2569,316.8293,22.296,306.7317,22.5928,296.6341,22.5221,286.5366,22.3613,276.439,22.1922,266.3415,22.1057,256.2439,21.36,246.1463,22.4465,236.0488,22.3296,225.9512,21.8466,215.8537,21.9942,205.7561,21.7914,195.6585,22.2177,185.561,22.6805,175.4634,21.6461,165.3659,22.4689,155.2683,21.9108,145.1707,21.6207,135.0732,21.5681,124.9756,21.3553,114.878,21.5591,104.7805,22.0363,94.6829,22.273,84.5854,22.5762,74.4878,22.4201,64.3902,21.2886,54.2927,22.619,44.1951,22.4861,34.0976,22,24" style="stroke: #000000; stroke-width: 1.5;"/><path d="M22,46.2969 L22,46.5771 L31.8333,45.7444 L41.6667,46.5546 L51.5,46.8298 L61.3333,45.3457 L71.1667,46.1933 L81,45.7282 L90.8333,45.7855 L100.6667,46.206 L110.5,45.375 L120.3333,47.0351 L130.1667,45.4565 L140,46.2969 " fill="#FFFFFF" style="stroke: #000000; stroke-width: 1.5;"/><text fill="#000000" font-family="sans-serif" font-size="14" font-weight="bold" lengthAdjust="spacingAndGlyphs" textLength="105" x="26" y="38.9951">quiltz.domain</text><!--cluster results--><polygon fill="#FFFFFF" filter="url(#fswxy91rm4crj)" points="787,291,787,291.2102,797.1667,290.5857,807.3333,291.1933,817.5,291.3997,827.6667,290.2866,837.8333,290.9223,848,291,847.8644,290.9574,849.278,295.4211,850.7783,299.9119,851.9801,304.3091,853.7761,308.8928,855,313.2969,855,312.6666,865.1053,313.0991,875.2105,313.7288,885.3158,313.2111,895.4211,313.3651,905.5263,313.2649,915.6316,313.4754,925.7368,313.536,935.8421,313.8826,945.9474,313.9679,956.0526,313.9761,966.1579,313.5515,976.2632,313.7605,986.3684,313.9991,996.4737,312.5757,1006.5789,313.9754,1016.6842,313.0004,1026.7895,313.8307,1036.8947,312.8019,1047,313.2969,1046.9315,313.2969,1047.7416,323.5972,1046.9513,333.8976,1047.1053,344.1979,1047.3386,354.4983,1047.4162,364.7986,1046.9961,375.099,1047.2872,385.3993,1046.4276,395.6997,1047,406,1047,406.2844,1037,406.5482,1027,406.4445,1017,406.613,1007,405.5169,997,405.3478,987,405.3786,977,405.9411,967,405.8035,957,406.6814,947,405.8253,937,405.6569,927,406.2283,917,405.3332,907,405.4809,897,406.649,887,406.4357,877,406.7345,867,405.6782,857,406.3192,847,406.5904,837,405.5276,827,405.9041,817,406.126,807,406.6518,797,405.9958,787,406,787.4626,406,786.4462,396.4167,786.3227,386.8333,787.5036,377.25,786.2831,367.6667,787.509,358.0833,787.2066,348.5,786.7321,338.9167,786.6462,329.3333,787.4588,319.75,786.7007,310.1667,787.5919,300.5833,787,291" style="stroke: #000000; stroke-width: 1.5;"/><path d="M787,313.2969 L787,313.5771 L796.7143,312.7444 L806.4286,313.5546 L816.1429,313.8298 L825.8571,312.3457 L835.5714,313.1933 L845.2857,312.7282 L855,313.2969 " fill="#FFFFFF" style="stroke: #000000; stroke-width: 1.5;"/><text fill="#000000" font-family="sans-serif" font-size="14" font-weight="bold" lengthAdjust="spacingAndGlyphs" textLength="55" x="791" y="305.9951">results</text><!--cluster validator--><polygon fill="#FFFFFF" filter="url(#fswxy91rm4crj)" points="931,75,931,75.2102,941.5714,74.5857,952.1429,75.1933,962.7143,75.3997,973.2857,74.2866,983.8571,74.9223,994.4286,74.5735,1005,75,1004.878,74.9617,1006.3783,79.4526,1007.5801,83.8497,1009.3761,88.4334,1010.3996,92.7746,1012,97.2969,1012,97.0991,1022.4,97.7288,1032.8,97.2111,1043.2,97.3651,1053.6,97.2649,1064,97.4754,1074.4,97.536,1084.8,97.8826,1095.2,97.9679,1105.6,97.9761,1116,97.2969,1116.2546,97.2969,1116.4636,107.5438,1116.7022,117.7906,1115.2788,128.0375,1116.6785,138.2844,1115.7035,148.5313,1116.5338,158.7781,1115.505,169.025,1115.9315,179.2719,1116.7416,189.5188,1115.9513,199.7656,1116.1053,210.0125,1116.3386,220.2594,1116.4162,230.5063,1115.9961,240.7531,1116,251,1116,251.2872,1106.2632,250.4276,1096.5263,251.2844,1086.7895,251.5482,1077.0526,251.4445,1067.3158,251.613,1057.5789,250.5169,1047.8421,250.3478,1038.1053,250.3786,1028.3684,250.9411,1018.6316,250.8035,1008.8947,251.6814,999.1579,250.8253,989.4211,250.6569,979.6842,251.2283,969.9474,250.3332,960.2105,250.4809,950.4737,251.649,940.7368,251.4357,931,251,931.7345,251,930.6782,241.2222,931.3192,231.4444,931.5904,221.6667,930.5276,211.8889,930.9041,202.1111,931.126,192.3333,931.6518,182.5556,930.9958,172.7778,931.4626,163,930.4462,153.2222,930.3227,143.4444,931.5036,133.6667,930.2831,123.8889,931.509,114.1111,931.2066,104.3333,930.7321,94.5556,930.6462,84.7778,931,75" style="stroke: #000000; stroke-width: 1.5;"/><path d="M931,97.2969 L931,97.5771 L941.125,96.7444 L951.25,97.5546 L961.375,97.8298 L971.5,96.3457 L981.625,97.1933 L991.75,96.7282 L1001.875,96.7855 L1012,97.2969 " fill="#FFFFFF" style="stroke: #000000; stroke-width: 1.5;"/><text fill="#000000" font-family="sans-serif" font-size="14" font-weight="bold" lengthAdjust="spacingAndGlyphs" textLength="68" x="935" y="89.9951">validator</text><!--cluster parsers--><polygon fill="#FFFFFF" filter="url(#fswxy91rm4crj)" points="718,100.5,718,100.7102,727.5714,100.0857,737.1429,100.6933,746.7143,100.8997,756.2857,99.7866,765.8571,100.4223,775.4286,100.0735,785,100.5,784.878,100.4617,786.3783,104.9526,787.5801,109.3497,789.3761,113.9334,790.3996,118.2746,792,122.7969,792,122.5991,801.9,123.2288,811.8,122.7111,821.7,122.8651,831.6,122.7649,841.5,122.9754,851.4,123.036,861.3,123.3826,871.2,123.4679,881.1,123.4761,891,122.7969,891.2546,122.7969,891.4636,133.0672,891.7022,143.3375,890.2788,153.6078,891.6785,163.8781,890.7035,174.1484,891.5338,184.4188,890.505,194.6891,890.9315,204.9594,891.7416,215.2297,891,225.5,891,225.4513,880.8235,225.6053,870.6471,225.8386,860.4706,225.9162,850.2941,225.4961,840.1176,225.7872,829.9412,224.9276,819.7647,225.7844,809.5882,226.0482,799.4118,225.9445,789.2353,226.113,779.0588,225.0169,768.8824,224.8478,758.7059,224.8786,748.5294,225.4411,738.3529,225.3035,728.1765,226.1814,718,225.5,717.8253,225.5,717.6569,215.8846,718.2283,206.2692,717.3332,196.6538,717.4809,187.0385,718.649,177.4231,718.4357,167.8077,718.7345,158.1923,717.6782,148.5769,718.3192,138.9615,718.5904,129.3462,717.5276,119.7308,717.9041,110.1154,718,100.5" style="stroke: #000000; stroke-width: 1.5;"/><path d="M718,122.7969 L718,123.0771 L728.5714,122.2444 L739.1429,123.0546 L749.7143,123.3298 L760.2857,121.8457 L770.8571,122.6933 L781.4286,122.2282 L792,122.7969 " fill="#FFFFFF" style="stroke: #000000; stroke-width: 1.5;"/><text fill="#000000" font-family="sans-serif" font-size="14" font-weight="bold" lengthAdjust="spacingAndGlyphs" textLength="61" x="722" y="115.4951">parsers</text><!--cluster anonymizer--><polygon fill="#FFFFFF" filter="url(#fswxy91rm4crj)" points="520,115,520,115.2102,529.8,114.5857,539.6,115.1933,549.4,115.3997,559.2,114.2866,569,114.9223,578.8,114.5735,588.6,114.6165,598.4,114.9318,608.2,114.3086,618,115,618.1761,115.0553,619.1996,119.3964,620.7371,123.899,622.3374,128.4213,623.5727,132.8289,625,137.2969,625,137.3651,635.1667,137.2649,645.3333,137.4754,655.5,137.536,665.6667,137.8826,675.8333,137.9679,686,137.2969,686.6793,137.2969,686.2546,147.8259,686.4636,158.3549,686.7022,168.8839,685.2788,179.4129,686.6785,189.942,685.7035,200.471,686,211,686,211.5338,676.2353,210.505,666.4706,210.9315,656.7059,211.7416,646.9412,210.9513,637.1765,211.1053,627.4118,211.3386,617.6471,211.4162,607.8824,210.9961,598.1176,211.2872,588.3529,210.4276,578.5882,211.2844,568.8235,211.5482,559.0588,211.4445,549.2941,211.613,539.5294,210.5169,529.7647,210.3478,520,211,519.3786,211,519.9411,201.4,519.8035,191.8,520.6814,182.2,519.8253,172.6,519.6569,163,520.2283,153.4,519.3332,143.8,519.4809,134.2,520.649,124.6,520,115" style="stroke: #000000; stroke-width: 1.5;"/><path d="M520,137.2969 L520,137.5771 L529.5455,136.7444 L539.0909,137.5546 L548.6364,137.8298 L558.1818,136.3457 L567.7273,137.1933 L577.2727,136.7282 L586.8182,136.7855 L596.3636,137.206 L605.9091,136.375 L615.4545,138.0351 L625,137.2969 " fill="#FFFFFF" style="stroke: #000000; stroke-width: 1.5;"/><text fill="#000000" font-family="sans-serif" font-size="14" font-weight="bold" lengthAdjust="spacingAndGlyphs" textLength="92" x="524" y="129.9951">anonymizer</text><!--cluster email--><polygon fill="#FFFFFF" filter="url(#fswxy91rm4crj)" points="312,115,312,115.2102,321.4,114.5857,330.8,115.1933,340.2,115.3997,349.6,114.2866,359,115,358.9753,114.9922,360.2644,119.4168,361.678,123.8805,363.1783,128.3713,364.3801,132.7685,366,137.2969,366,137.8505,376,136.6666,386,137.0991,396,137.7288,406,137.2111,416,137.3651,426,137.2649,436,137.4754,446,137.536,456,137.8826,466,137.9679,476,137.9761,486,137.5515,496,137.2969,496.4636,137.2969,496.7022,147.8259,495.2788,158.3549,496.6785,168.8839,495.7035,179.4129,496.5338,189.942,495.505,200.471,496,211,496,210.9315,485.7778,211.7416,475.5556,210.9513,465.3333,211.1053,455.1111,211.3386,444.8889,211.4162,434.6667,210.9961,424.4444,211.2872,414.2222,210.4276,404,211.2844,393.7778,211.5482,383.5556,211.4445,373.3333,211.613,363.1111,210.5169,352.8889,210.3478,342.6667,210.3786,332.4444,210.9411,322.2222,210.8035,312,211,312.6814,211,311.8253,201.4,311.6569,191.8,312.2283,182.2,311.3332,172.6,311.4809,163,312.649,153.4,312.4357,143.8,312.7345,134.2,311.6782,124.6,312,115" style="stroke: #000000; stroke-width: 1.5;"/><path d="M312,137.2969 L312,137.5771 L322.8,136.7444 L333.6,137.5546 L344.4,137.8298 L355.2,136.3457 L366,137.2969 " fill="#FFFFFF" style="stroke: #000000; stroke-width: 1.5;"/><text fill="#000000" font-family="sans-serif" font-size="14" font-weight="bold" lengthAdjust="spacingAndGlyphs" textLength="41" x="316" y="129.9951">email</text><!--cluster id--><polygon fill="#FFFFFF" filter="url(#fswxy91rm4crj)" points="46,113.5,46,113.5701,50,113.3619,54,113.5644,58,113.6332,62,113.2622,66,113.5,65.9753,113.4922,67.2644,117.9168,68.678,122.3805,70.1783,126.8713,71.3801,131.2685,73,135.7969,73,136.3505,82.7727,135.1666,92.5455,135.5991,102.3182,136.2288,112.0909,135.7111,121.8636,135.8651,131.6364,135.7649,141.4091,135.9754,151.1818,136.036,160.9545,136.3826,170.7273,136.4679,180.5,136.4761,190.2727,136.0515,200.0455,136.2605,209.8182,136.4991,219.5909,135.0757,229.3636,136.4754,239.1364,135.5004,248.9091,136.3307,258.6818,135.3019,268.4545,135.7284,278.2273,136.5385,288,135.7969,287.9513,135.7969,288.1053,145.8816,288.3386,155.9663,288.4162,166.0511,287.9961,176.1358,288.2872,186.2206,287.4276,196.3053,288.2844,206.39,288.5482,216.4748,288.4445,226.5595,288.613,236.6442,287.5169,246.729,287.3478,256.8137,287.3786,266.8984,287.9411,276.9832,287.8035,287.0679,288.6814,297.1526,287.8253,307.2374,287.6569,317.3221,288.2283,327.4069,287.3332,337.4916,287.4809,347.5763,288.649,357.6611,288.4357,367.7458,288.7345,377.8305,287.6782,387.9153,288,398,288,398.3192,277.9167,398.5904,267.8333,397.5276,257.75,397.9041,247.6667,398.126,237.5833,398.6518,227.5,397.9958,217.4167,398.4626,207.3333,397.4462,197.25,397.3227,187.1667,398.5036,177.0833,397.2831,167,398.509,156.9167,398.2066,146.8333,397.7321,136.75,397.6462,126.6667,398.4588,116.5833,397.7007,106.5,398.5919,96.4167,397.4473,86.3333,398.6174,76.25,398.4843,66.1667,398.245,56.0833,398.0472,46,398,46.7266,398,46.6136,387.8393,46.1693,377.6786,46.2682,367.5179,45.8697,357.3571,46.7165,347.1964,46.1549,337.0357,46.1726,326.875,45.3916,316.7143,45.5948,306.5536,46.5307,296.3929,46.4298,286.2321,45.9571,276.0714,45.6778,265.9107,45.7811,255.75,45.3138,245.5893,46.4147,235.4286,46.7396,225.2679,46.5264,215.1071,46.6949,204.9464,45.8633,194.7857,46.0872,184.625,45.6124,174.4643,46.284,164.3036,46.2468,154.1429,46.5524,143.9821,45.7703,133.8214,45.8656,123.6607,46,113.5" style="stroke: #000000; stroke-width: 1.5;"/><path d="M46,135.7969 L46,135.8903 L51.4,135.6127 L56.8,135.8828 L62.2,135.9745 L67.6,135.4798 L73,135.7969 " fill="#FFFFFF" style="stroke: #000000; stroke-width: 1.5;"/><text fill="#000000" font-family="sans-serif" font-size="14" font-weight="bold" lengthAdjust="spacingAndGlyphs" textLength="14" x="50" y="128.4951">id</text><!--class Success--><polygon fill="#F8F8F8" filter="url(#fswxy91rm4crj)" points="939,334,939,334.2102,949.5,333.5857,960,334.1933,970.5,334.3997,981,333.2866,991.5,333.9223,1002,333.5735,1012.5,333.6165,1023,334,1022.9318,334,1022.3086,343.6,1023.5536,353.2,1022.3697,362.8,1022.8022,372.4,1023,382,1023,382.4319,1012.5,381.9142,1002,382.0682,991.5,381.9681,981,382.1785,970.5,382.2391,960,382.5857,949.5,382.6711,939,382,939.6793,382,939.2546,372.4,939.4636,362.8,939.7022,353.2,938.2788,343.6,939,334" style="stroke: #383838; stroke-width: 1.5;"/><polygon fill="#C2C2C2" points="965.0608,352.6756,963.4484,354.8788,961.5412,358.1057,958.8136,360.2804,955.9474,361.4696,953.662,361.5728,950.7247,360.0855,947.9532,359.1139,945.8495,357.1412,944.7461,354.8828,944.0917,353.0845,943.4506,350.7357,942.41,348.7145,943.2096,346.741,943.9102,344.5792,946.5393,342.8695,948.389,340.6511,950.6784,339.9144,953.4001,339.2801,956.8904,339.657,958.8021,340.5585,961.0247,340.9672,963.7272,343.736,964.6693,346.659,965.0786,348.6534,964.615,351.9399" style="stroke: #383838; stroke-width: 1.0;"/><path d="M956.9688,355.6406 Q956.3906,355.9375 955.75,356.0781 Q955.1094,356.2344 954.4063,356.2344 Q951.9063,356.2344 950.5781,354.5938 Q949.2656,352.9375 949.2656,349.8125 Q949.2656,346.6875 950.5781,345.0313 Q951.9063,343.375 954.4063,343.375 Q955.1094,343.375 955.75,343.5313 Q956.4063,343.6875 956.9688,343.9844 L956.9688,346.7031 Q956.3438,346.125 955.75,345.8594 Q955.1563,345.5781 954.5313,345.5781 Q953.1875,345.5781 952.5,346.6563 Q951.8125,347.7188 951.8125,349.8125 Q951.8125,351.9063 952.5,352.9844 Q953.1875,354.0469 954.5313,354.0469 Q955.1563,354.0469 955.75,353.7813 Q956.3438,353.5 956.9688,352.9219 L956.9688,355.6406 Z "/><text fill="#000000" font-family="sans-serif" font-size="12" lengthAdjust="spacingAndGlyphs" textLength="52" x="968" y="354.1543">Success</text><path d="M940,366 L940,366.2802 L950.25,365.4476 L960.5,366.2577 L970.75,366.5329 L981,365.0488 L991.25,365.8964 L1001.5,365.4313 L1011.75,365.4887 L1022,366 " fill="#F8F8F8" style="stroke: #383838; stroke-width: 1.5;"/><path d="M940,374 L940,374.2802 L950.25,373.4476 L960.5,374.2577 L970.75,374.5329 L981,373.0488 L991.25,373.8964 L1001.5,373.4313 L1011.75,373.4887 L1022,374 " fill="#F8F8F8" style="stroke: #383838; stroke-width: 1.5;"/><!--class Failure--><polygon fill="#F8F8F8" filter="url(#fswxy91rm4crj)" points="830,334,830,334.2102,840.5714,333.5857,851.1429,334.1933,861.7143,334.3997,872.2857,333.2866,882.8571,333.9223,893.4286,333.5735,904,334,903.6165,334,903.9318,343.6,903.3086,353.2,904.5536,362.8,903.3697,372.4,904,382,904,381.8022,893.4286,382.4319,882.8571,381.9142,872.2857,382.0682,861.7143,381.9681,851.1429,382.1785,840.5714,382.2391,830,382,830.5857,382,830.6711,372.4,830.6793,362.8,830.2546,353.2,830.4636,343.6,830,334" style="stroke: #383838; stroke-width: 1.5;"/><polygon fill="#C2C2C2" points="856.0608,352.6756,854.4484,354.8788,852.5412,358.1057,849.8136,360.2804,846.9474,361.4696,844.662,361.5728,841.7247,360.0855,838.9532,359.1139,836.8495,357.1412,835.7461,354.8828,835.0917,353.0845,834.4506,350.7357,833.41,348.7145,834.2096,346.741,834.9102,344.5792,837.5393,342.8695,839.389,340.6511,841.6784,339.9144,844.4001,339.2801,847.8904,339.657,849.8021,340.5585,852.0247,340.9672,854.7272,343.736,855.6693,346.659,856.0786,348.6534,855.615,351.9399" style="stroke: #383838; stroke-width: 1.0;"/><path d="M847.9688,355.6406 Q847.3906,355.9375 846.75,356.0781 Q846.1094,356.2344 845.4063,356.2344 Q842.9063,356.2344 841.5781,354.5938 Q840.2656,352.9375 840.2656,349.8125 Q840.2656,346.6875 841.5781,345.0313 Q842.9063,343.375 845.4063,343.375 Q846.1094,343.375 846.75,343.5313 Q847.4063,343.6875 847.9688,343.9844 L847.9688,346.7031 Q847.3438,346.125 846.75,345.8594 Q846.1563,345.5781 845.5313,345.5781 Q844.1875,345.5781 843.5,346.6563 Q842.8125,347.7188 842.8125,349.8125 Q842.8125,351.9063 843.5,352.9844 Q844.1875,354.0469 845.5313,354.0469 Q846.1563,354.0469 846.75,353.7813 Q847.3438,353.5 847.9688,352.9219 L847.9688,355.6406 Z "/><text fill="#000000" font-family="sans-serif" font-size="12" lengthAdjust="spacingAndGlyphs" textLength="42" x="859" y="354.1543">Failure</text><path d="M831,366 L831,366.2802 L841.2857,365.4476 L851.5714,366.2577 L861.8571,366.5329 L872.1429,365.0488 L882.4286,365.8964 L892.7143,365.4313 L903,366 " fill="#F8F8F8" style="stroke: #383838; stroke-width: 1.5;"/><path d="M831,374 L831,374.2802 L841.2857,373.4476 L851.5714,374.2577 L861.8571,374.5329 L872.1429,373.0488 L882.4286,373.8964 L892.7143,373.4313 L903,374 " fill="#F8F8F8" style="stroke: #383838; stroke-width: 1.5;"/><!--class validatorfunctions--><polygon fill="#F8F8F8" filter="url(#fswxy91rm4crj)" points="974,118,974,118.2102,983.8333,117.5857,993.6667,118.1933,1003.5,118.3997,1013.3333,117.2866,1023.1667,117.9223,1033,117.5735,1042.8333,117.6165,1052.6667,117.9318,1062.5,117.3086,1072.3333,118.5536,1082.1667,117.3697,1092,118,1091.8022,118,1092.4319,127.8906,1091.9142,137.7813,1092.0682,147.6719,1091.9681,157.5625,1092.1785,167.4531,1092.2391,177.3438,1092.5857,187.2344,1092.6711,197.125,1092.6793,207.0156,1092.2546,216.9063,1092,226.7969,1092,227.2605,1082.1667,227.4991,1072.3333,226.0757,1062.5,227.4754,1052.6667,226.5004,1042.8333,227.3307,1033,226.3019,1023.1667,226.7284,1013.3333,227.5385,1003.5,226.7481,993.6667,226.9022,983.8333,227.1355,974,226.7969,974.4162,226.7969,973.9961,216.9063,974.2872,207.0156,973.4276,197.125,974.2844,187.2344,974.5482,177.3438,974.4445,167.4531,974.613,157.5625,973.5169,147.6719,973.3478,137.7813,973.3786,127.8906,974,118" style="stroke: #383838; stroke-width: 1.5;"/><text fill="#000000" font-family="sans-serif" font-size="12" lengthAdjust="spacingAndGlyphs" textLength="112" x="977" y="134.1387">validatorfunctions</text><path d="M975,141.9688 L975,142.249 L984.6667,141.4163 L994.3333,142.2265 L1004,142.5017 L1013.6667,141.0176 L1023.3333,141.8651 L1033,141.4001 L1042.6667,141.4574 L1052.3333,141.8779 L1062,141.0469 L1071.6667,142.7069 L1081.3333,141.1284 L1091,141.9688 " fill="#F8F8F8" style="stroke: #383838; stroke-width: 1.5;"/><text fill="#000000" font-family="sans-serif" font-size="11" lengthAdjust="spacingAndGlyphs" textLength="52" x="980" y="156.1792">validate()</text><text fill="#000000" font-family="sans-serif" font-size="11" lengthAdjust="spacingAndGlyphs" textLength="83" x="980" y="168.9839">optionality_of()</text><text fill="#000000" font-family="sans-serif" font-size="11" lengthAdjust="spacingAndGlyphs" textLength="90" x="980" y="181.7886">max_length_of()</text><text fill="#000000" font-family="sans-serif" font-size="11" lengthAdjust="spacingAndGlyphs" textLength="72" x="980" y="194.5933">is_between()</text><text fill="#000000" font-family="sans-serif" font-size="11" lengthAdjust="spacingAndGlyphs" textLength="87" x="980" y="207.3979">conversion_of()</text><text fill="#000000" font-family="sans-serif" font-size="11" lengthAdjust="spacingAndGlyphs" textLength="89" x="980" y="220.2026">an_attempt_to()</text><!--class parserfunctions--><polygon fill="#F8F8F8" filter="url(#fswxy91rm4crj)" points="761,143.5,761,143.7102,770.6364,143.0857,780.2727,143.6933,789.9091,143.8997,799.5455,142.7866,809.1818,143.4223,818.8182,143.0735,828.4545,143.1165,838.0909,143.4318,847.7273,142.8086,857.3636,144.0536,867,143.5,866.3697,143.5,866.8022,153.0964,867.4319,162.6927,866.9142,172.2891,867.0682,181.8854,866.9681,191.4818,867,201.0781,867,201.2567,857.3636,201.3173,847.7273,201.6638,838.0909,201.7492,828.4545,201.7574,818.8182,201.3328,809.1818,201.5417,799.5455,201.7804,789.9091,200.3569,780.2727,201.7566,770.6364,200.7816,761,201.0781,761.5338,201.0781,760.505,191.4818,760.9315,181.8854,761.7416,172.2891,760.9513,162.6927,761.1053,153.0964,761,143.5" style="stroke: #383838; stroke-width: 1.5;"/><text fill="#000000" font-family="sans-serif" font-size="12" lengthAdjust="spacingAndGlyphs" textLength="99" x="764.5" y="159.6387">parserfunctions</text><path d="M762,167.4688 L762,167.749 L772.4,166.9163 L782.8,167.7265 L793.2,168.0017 L803.6,166.5176 L814,167.3651 L824.4,166.9001 L834.8,166.9574 L845.2,167.3779 L855.6,166.5469 L866,167.4688 " fill="#F8F8F8" style="stroke: #383838; stroke-width: 1.5;"/><text fill="#000000" font-family="sans-serif" font-size="11" lengthAdjust="spacingAndGlyphs" textLength="89" x="767" y="181.6792">date_from_iso()</text><text fill="#000000" font-family="sans-serif" font-size="11" lengthAdjust="spacingAndGlyphs" textLength="94" x="767" y="194.4839">int_from_string()</text><!--class anonymizerfunctions--><polygon fill="#F8F8F8" filter="url(#fswxy91rm4crj)" points="536,150,536,150.2102,546.3077,149.5857,556.6154,150.1933,566.9231,150.3997,577.2308,149.2866,587.5385,149.9223,597.8462,149.5735,608.1538,149.6165,618.4615,149.9318,628.7692,149.3086,639.0769,150.5536,649.3846,149.3697,659.6923,149.8022,670,150,670.144,150,669.9714,158.9547,670.0227,167.9094,669.9894,176.8641,670.0595,185.8188,670,194.7734,670,195.0126,659.6923,195.3591,649.3846,195.4445,639.0769,195.4527,628.7692,195.0281,618.4615,195.237,608.1538,195.4757,597.8462,194.0523,587.5385,195.4519,577.2308,194.4769,566.9231,195.3072,556.6154,194.2784,546.3077,194.7049,536,194.7734,536.2472,194.7734,535.9838,185.8188,536.0351,176.8641,536.1129,167.9094,536.1387,158.9547,536,150" style="stroke: #383838; stroke-width: 1.5;"/><text fill="#000000" font-family="sans-serif" font-size="12" lengthAdjust="spacingAndGlyphs" textLength="128" x="539" y="166.1387">anonymizerfunctions</text><path d="M537,173.9688 L537,174.249 L547.1538,173.4163 L557.3077,174.2265 L567.4615,174.5017 L577.6154,173.0176 L587.7692,173.8651 L597.9231,173.4001 L608.0769,173.4574 L618.2308,173.8779 L628.3846,173.0469 L638.5385,174.7069 L648.6923,173.1284 L658.8462,173.7051 L669,173.9688 " fill="#F8F8F8" style="stroke: #383838; stroke-width: 1.5;"/><text fill="#000000" font-family="sans-serif" font-size="11" lengthAdjust="spacingAndGlyphs" textLength="68" x="542" y="188.1792">anonymize()</text><!--class emailfunctions--><polygon fill="#F8F8F8" filter="url(#fswxy91rm4crj)" points="328,150,328,150.2102,338.1333,149.5857,348.2667,150.1933,358.4,150.3997,368.5333,149.2866,378.6667,149.9223,388.8,149.5735,398.9333,149.6165,409.0667,149.9318,419.2,149.3086,429.3333,150.5536,439.4667,149.3697,449.6,149.8022,459.7333,150.4319,469.8667,149.9142,480,150,480.0227,150,479.9894,158.9547,480.0595,167.9094,480.0797,176.8641,480.1952,185.8188,480,194.7734,480,195.4445,469.8667,195.4527,459.7333,195.0281,449.6,195.237,439.4667,195.4757,429.3333,194.0523,419.2,195.4519,409.0667,194.4769,398.9333,195.3072,388.8,194.2784,378.6667,194.7049,368.5333,195.515,358.4,194.7247,348.2667,194.8787,338.1333,195.1121,328,194.7734,328.1387,194.7734,327.9987,185.8188,328.0957,176.8641,327.8092,167.9094,328.0948,158.9547,328,150" style="stroke: #383838; stroke-width: 1.5;"/><text fill="#000000" font-family="sans-serif" font-size="12" lengthAdjust="spacingAndGlyphs" textLength="91" x="358.5" y="166.1387">emailfunctions</text><path d="M329,173.9688 L329,174.249 L339,173.4163 L349,174.2265 L359,174.5017 L369,173.0176 L379,173.8651 L389,173.4001 L399,173.4574 L409,173.8779 L419,173.0469 L429,174.7069 L439,173.1284 L449,173.7051 L459,174.5447 L469,173.8544 L479,173.9688 " fill="#F8F8F8" style="stroke: #383838; stroke-width: 1.5;"/><text fill="#000000" font-family="sans-serif" font-size="11" lengthAdjust="spacingAndGlyphs" textLength="140" x="334" y="188.1792">is_valid_email_address()</text><!--class ID--><polygon fill="#F8F8F8" filter="url(#fswxy91rm4crj)" points="85,148.5,85,148.5701,93.8,148.3619,102.6,148.5644,111.4,148.6332,120.2,148.2622,129,148.5,128.9223,148.5,128.5735,158.1,128.6165,167.7,128.9318,177.3,128.3086,186.9,129,196.5,129,196.6845,120.2,196.2899,111.4,196.4341,102.6,196.644,93.8,196.4714,85,196.5,85.0682,196.5,84.9681,186.9,85.1785,177.3,85.2391,167.7,85.5857,158.1,85,148.5" style="stroke: #383838; stroke-width: 1.5;"/><polygon fill="#C2C2C2" points="111.0608,167.1756,109.4484,169.3788,107.5412,172.6057,104.8136,174.7804,101.9474,175.9696,99.662,176.0728,96.7247,174.5855,93.9532,173.6139,91.8495,171.6412,90.7461,169.3828,90.0917,167.5845,89.4506,165.2357,88.41,163.2145,89.2096,161.241,89.9102,159.0792,92.5393,157.3695,94.389,155.1511,96.6784,154.4144,99.4001,153.7801,102.8904,154.157,104.8021,155.0585,107.0247,155.4672,109.7272,158.236,110.6693,161.159,111.0786,163.1534,110.615,166.4399" style="stroke: #383838; stroke-width: 1.0;"/><path d="M102.9688,170.1406 Q102.3906,170.4375 101.75,170.5781 Q101.1094,170.7344 100.4063,170.7344 Q97.9063,170.7344 96.5781,169.0938 Q95.2656,167.4375 95.2656,164.3125 Q95.2656,161.1875 96.5781,159.5313 Q97.9063,157.875 100.4063,157.875 Q101.1094,157.875 101.75,158.0313 Q102.4063,158.1875 102.9688,158.4844 L102.9688,161.2031 Q102.3438,160.625 101.75,160.3594 Q101.1563,160.0781 100.5313,160.0781 Q99.1875,160.0781 98.5,161.1563 Q97.8125,162.2188 97.8125,164.3125 Q97.8125,166.4063 98.5,167.4844 Q99.1875,168.5469 100.5313,168.5469 Q101.1563,168.5469 101.75,168.2813 Q102.3438,168 102.9688,167.4219 L102.9688,170.1406 Z "/><text fill="#000000" font-family="sans-serif" font-size="12" lengthAdjust="spacingAndGlyphs" textLength="12" x="114" y="168.6543">ID</text><path d="M86,180.5 L86,180.5934 L94.4,180.3159 L102.8,180.5859 L111.2,180.6776 L119.6,180.1829 L128,180.5 " fill="#F8F8F8" style="stroke: #383838; stroke-width: 1.5;"/><path d="M86,188.5 L86,188.5934 L94.4,188.3159 L102.8,188.5859 L111.2,188.6776 L119.6,188.1829 L128,188.5 " fill="#F8F8F8" style="stroke: #383838; stroke-width: 1.5;"/><!--class IDGenerator--><polygon fill="#F8F8F8" filter="url(#fswxy91rm4crj)" points="164,148.5,164,148.7102,173.8182,148.0857,183.6364,148.6933,193.4545,148.8997,203.2727,147.7866,213.0909,148.4223,222.9091,148.0735,232.7273,148.1165,242.5455,148.4318,252.3636,147.8086,262.1818,149.0536,272,148.5,271.3697,148.5,271.8022,158.1,272.4319,167.7,271.9142,177.3,272.0682,186.9,272,196.5,272,196.4681,262.1818,196.6785,252.3636,196.7391,242.5455,197.0857,232.7273,197.1711,222.9091,197.1793,213.0909,196.7546,203.2727,196.9636,193.4545,197.2022,183.6364,195.7788,173.8182,197.1785,164,196.5,163.7035,196.5,164.5338,186.9,163.505,177.3,163.9315,167.7,164.7416,158.1,164,148.5" style="stroke: #383838; stroke-width: 1.5;"/><polygon fill="#C2C2C2" points="190.0608,167.1756,188.4484,169.3788,186.5412,172.6057,183.8136,174.7804,180.9474,175.9696,178.662,176.0728,175.7247,174.5855,172.9532,173.6139,170.8495,171.6412,169.7461,169.3828,169.0917,167.5845,168.4506,165.2357,167.41,163.2145,168.2096,161.241,168.9102,159.0792,171.5393,157.3695,173.389,155.1511,175.6784,154.4144,178.4001,153.7801,181.8904,154.157,183.8021,155.0585,186.0247,155.4672,188.7272,158.236,189.6693,161.159,190.0786,163.1534,189.615,166.4399" style="stroke: #383838; stroke-width: 1.0;"/><path d="M181.9688,170.1406 Q181.3906,170.4375 180.75,170.5781 Q180.1094,170.7344 179.4063,170.7344 Q176.9063,170.7344 175.5781,169.0938 Q174.2656,167.4375 174.2656,164.3125 Q174.2656,161.1875 175.5781,159.5313 Q176.9063,157.875 179.4063,157.875 Q180.1094,157.875 180.75,158.0313 Q181.4063,158.1875 181.9688,158.4844 L181.9688,161.2031 Q181.3438,160.625 180.75,160.3594 Q180.1563,160.0781 179.5313,160.0781 Q178.1875,160.0781 177.5,161.1563 Q176.8125,162.2188 176.8125,164.3125 Q176.8125,166.4063 177.5,167.4844 Q178.1875,168.5469 179.5313,168.5469 Q180.1563,168.5469 180.75,168.2813 Q181.3438,168 181.9688,167.4219 L181.9688,170.1406 Z "/><text fill="#000000" font-family="sans-serif" font-size="12" lengthAdjust="spacingAndGlyphs" textLength="76" x="193" y="168.6543">IDGenerator</text><path d="M165,180.5 L165,180.7802 L174.6364,179.9476 L184.2727,180.7577 L193.9091,181.0329 L203.5455,179.5488 L213.1818,180.3964 L222.8182,179.9313 L232.4545,179.9887 L242.0909,180.4091 L251.7273,179.5782 L261.3636,181.2382 L271,180.5 " fill="#F8F8F8" style="stroke: #383838; stroke-width: 1.5;"/><path d="M165,188.5 L165,188.7802 L174.6364,187.9476 L184.2727,188.7577 L193.9091,189.0329 L203.5455,187.5488 L213.1818,188.3964 L222.8182,187.9313 L232.4545,187.9887 L242.0909,188.4091 L251.7273,187.5782 L261.3636,189.2382 L271,188.5 " fill="#F8F8F8" style="stroke: #383838; stroke-width: 1.5;"/><!--class FixedIDGeneratorGenerating--><polygon fill="#F8F8F8" filter="url(#fswxy91rm4crj)" points="62,334,62,334.2102,72,333.5857,82,334.1933,92,334.3997,102,333.2866,112,333.9223,122,333.5735,132,333.6165,142,333.9318,152,333.3086,162,334.5536,172,333.3697,182,333.8022,192,334.4319,202,333.9142,212,334.0682,222,333.9681,232,334.1785,242,334.2391,252,334.5857,262,334.6711,272,334,272.6793,334,272.2546,343.6,272.4636,353.2,272.7022,362.8,271.2788,372.4,272,382,272,382.6785,262,381.7035,252,382.5338,242,381.505,232,381.9315,222,382.7416,212,381.9513,202,382.1053,192,382.3386,182,382.4162,172,381.9961,162,382.2872,152,381.4276,142,382.2844,132,382.5482,122,382.4445,112,382.613,102,381.5169,92,381.3478,82,381.3786,72,381.9411,62,382,61.8035,382,62.6814,372.4,61.8253,362.8,61.6569,353.2,62.2283,343.6,62,334" style="stroke: #383838; stroke-width: 1.5;"/><polygon fill="#C2C2C2" points="88.0608,352.6756,86.4484,354.8788,84.5412,358.1057,81.8136,360.2804,78.9474,361.4696,76.662,361.5728,73.7247,360.0855,70.9532,359.1139,68.8495,357.1412,67.7461,354.8828,67.0917,353.0845,66.4506,350.7357,65.41,348.7145,66.2096,346.741,66.9102,344.5792,69.5393,342.8695,71.389,340.6511,73.6784,339.9144,76.4001,339.2801,79.8904,339.657,81.8021,340.5585,84.0247,340.9672,86.7272,343.736,87.6693,346.659,88.0786,348.6534,87.615,351.9399" style="stroke: #383838; stroke-width: 1.0;"/><path d="M79.9688,355.6406 Q79.3906,355.9375 78.75,356.0781 Q78.1094,356.2344 77.4063,356.2344 Q74.9063,356.2344 73.5781,354.5938 Q72.2656,352.9375 72.2656,349.8125 Q72.2656,346.6875 73.5781,345.0313 Q74.9063,343.375 77.4063,343.375 Q78.1094,343.375 78.75,343.5313 Q79.4063,343.6875 79.9688,343.9844 L79.9688,346.7031 Q79.3438,346.125 78.75,345.8594 Q78.1563,345.5781 77.5313,345.5781 Q76.1875,345.5781 75.5,346.6563 Q74.8125,347.7188 74.8125,349.8125 Q74.8125,351.9063 75.5,352.9844 Q76.1875,354.0469 77.5313,354.0469 Q78.1563,354.0469 78.75,353.7813 Q79.3438,353.5 79.9688,352.9219 L79.9688,355.6406 Z "/><text fill="#000000" font-family="sans-serif" font-size="12" lengthAdjust="spacingAndGlyphs" textLength="178" x="91" y="354.1543">FixedIDGeneratorGenerating</text><path d="M63,366 L63,366.2802 L72.9048,365.4476 L82.8095,366.2577 L92.7143,366.5329 L102.619,365.0488 L112.5238,365.8964 L122.4286,365.4313 L132.3333,365.4887 L142.2381,365.9091 L152.1429,365.0782 L162.0476,366.7382 L171.9524,365.1596 L181.8571,365.7363 L191.7619,366.5759 L201.6667,365.8856 L211.5714,366.091 L221.4762,365.9574 L231.381,366.238 L241.2857,366.3188 L251.1905,366.7809 L261.0952,366.8947 L271,366 " fill="#F8F8F8" style="stroke: #383838; stroke-width: 1.5;"/><path d="M63,374 L63,374.2802 L72.9048,373.4476 L82.8095,374.2577 L92.7143,374.5329 L102.619,373.0488 L112.5238,373.8964 L122.4286,373.4313 L132.3333,373.4887 L142.2381,373.9091 L152.1429,373.0782 L162.0476,374.7382 L171.9524,373.1596 L181.8571,373.7363 L191.7619,374.5759 L201.6667,373.8856 L211.5714,374.091 L221.4762,373.9574 L231.381,374.238 L241.2857,374.3188 L251.1905,374.7809 L261.0952,374.8947 L271,374 " fill="#F8F8F8" style="stroke: #383838; stroke-width: 1.5;"/><!--link validator to parsers--><path d="M930.9102,131 L930.9102,131.0934 L930.6977,130.8159 L930.4852,131.0859 L930.2727,131.1776 L930.0602,130.6829 L929.8477,131 L929.8477,130.9655 L925.0219,130.8104 L920.1961,130.8296 L915.3703,130.9697 L910.5445,130.6927 L905.7188,131 L905.7188,131.2461 L904.1613,130.7199 L902.6038,130.9121 L901.0464,131.192 L899.4889,130.9619 L897.9315,131 L897.9315,131.0303 L897.1108,130.9858 L896.2901,131.0793 L895.4695,131.1063 L894.6488,131.2603 L893.8282,131 L893.8282,131.2982 L893.4082,131.3019 L892.9883,131.1132 L892.5683,131.206 L892.1484,131.3121 L891.7284,131 L891.7284,130.6795 L891.6224,131.3016 L891.5165,130.8682 L891.4105,131.2372 L891.3046,130.78 L891.1986,131 " fill="none" style="stroke: #383838; stroke-width: 1.0; stroke-dasharray: 7.0,7.0;"/><polygon fill="#383838" points="891.1986,131,891.2271,131.064,892.9426,131.6738,894.8248,132.6589,896.6528,133.5217,898.3021,133.9827,900.1986,135,900.1803,134.9817,899.2981,134.0995,898.5083,133.3096,897.7826,132.5839,896.8357,131.637,896.1986,131,896.3291,131.1305,896.8501,130.0514,897.752,129.3534,898.7005,128.7018,899.3784,127.7798,900.1986,127,900.2079,127.0208,898.3943,127.7903,896.6228,128.6544,894.831,129.4728,893.0779,130.3784,891.1986,131" style="stroke: #383838; stroke-width: 1.0;"/><!--link validator to results--><path d="M930.7848,215 L930.7848,215.0934 L930.4448,214.8159 L930.1047,215.0859 L929.7647,215.1776 L929.4246,214.6829 L929.0846,215 L929.0846,214.9655 L928.3191,214.8104 L927.5536,214.8296 L926.7881,214.9697 L926.0226,214.6927 L925.2571,215 L925.2571,215.2461 L923.4213,214.7199 L921.5855,214.9121 L919.7497,215.192 L917.9139,214.9619 L916.0781,215 L916.0781,215.091 L906.2125,214.9574 L896.3469,215.238 L886.4813,215.3188 L876.6156,215.7809 L866.75,215 L866.75,215.8947 L856.5,215.9057 L846.25,215.3395 L836,215.6181 L825.75,215.9363 L815.5,214.0384 L805.25,215.9047 L795,215 L794.6047,215 L795.7117,224.7355 L794.34,234.4711 L794.9087,244.2066 L795.9888,253.9421 L794.935,263.6777 L795.1404,273.4132 L795,283.1488 L795.1505,283.1488 L795.185,284.4471 L794.9983,285.7454 L795.1277,287.0437 L794.7456,288.342 L795,289.6404 L795.1264,289.6404 L795.2436,289.8025 L795.1976,289.9647 L795.2725,290.1269 L794.7853,290.289 L795,290.4512 " fill="none" style="stroke: #383838; stroke-width: 1.0; stroke-dasharray: 7.0,7.0;"/><polygon fill="#383838" points="795,290.4512,795.064,290.4796,795.6738,288.5951,796.6589,286.8773,797.5217,285.1053,797.9827,283.1546,799,281.4512,798.9817,281.4329,798.0995,282.1507,797.3096,282.9608,796.5839,283.8351,795.637,284.4882,795,285.4512,795.1305,285.5817,794.0514,284.5026,793.3534,283.8046,792.7018,283.153,791.7798,282.231,791,281.4512,791.0208,281.4604,791.7903,283.2469,792.6544,285.0753,793.4728,286.8836,794.3784,288.7305,795,290.4512" style="stroke: #383838; stroke-width: 1.0;"/><!--link parsers to results--><path d="M726,226.464 L726.0934,226.464 L725.8159,226.8524 L726.0859,227.2408 L726.1776,227.6292 L725.6829,228.0175 L726,228.4059 L725.9655,228.4059 L725.8104,229.9921 L725.8296,231.5783 L725.9697,233.1645 L725.6927,234.7507 L726,236.3369 L726.2461,236.3369 L725.7199,242.9885 L725.9121,249.6401 L726.192,256.2918 L725.9619,262.9434 L726,269.595 L726.091,269.595 L725.9574,279.4178 L726.238,289.2406 L726.3188,299.0633 L726.7809,308.8861 L726.8947,318.7089 L726.9057,328.5317 L726.3395,338.3544 L726.6181,348.1772 L726,358 L726,358.3121 L732.415,357.6795 L738.83,358.3016 L745.245,357.8682 L751.66,358.2372 L758.075,358 L758.075,357.78 L762.7334,357.9696 L767.3917,358.3296 L772.0501,357.9783 L776.7085,358.0468 L781.3669,358 L781.3669,358.1505 L782.3034,358.185 L783.2399,357.9983 L784.1764,358.1277 L785.1129,357.7456 L786.0495,358 L786.0495,358.1264 L786.1559,358.2436 L786.2624,358.1976 L786.3688,358.2725 L786.4752,357.7853 L786.5817,358 L786.5817,357.7101 L786.6339,357.7238 L786.6862,357.9738 L786.7385,357.9127 L786.7907,358.3028 L786.843,358 " fill="none" style="stroke: #383838; stroke-width: 1.0; stroke-dasharray: 7.0,7.0;"/><polygon fill="#383838" points="786.843,358,786.8714,358.064,784.9869,357.0738,783.2691,356.4589,781.4971,355.7217,779.5464,354.5827,777.843,354,777.8247,353.9817,778.5424,354.6995,779.3526,355.5096,780.2269,356.3839,780.88,357.037,781.843,358,781.9735,358.1305,780.8944,358.6514,780.1964,359.5534,779.5448,360.5018,778.6228,361.1798,777.843,362,777.8522,362.0208,779.6386,361.1903,781.4671,360.4544,783.2753,359.6728,785.1223,358.9784,786.843,358" style="stroke: #383838; stroke-width: 1.0;"/><!--link ID to IDGenerator--><!--link ID to FixedIDGeneratorGenerating--><!--
@startuml domain-lib
skinparam {
  handwritten true
  monochrome true
  linetype ortho
}
hide <<functions>> circle
hide <<functions>> attributes
hide <<functions>> stereotype

package quiltz.domain {
  package results {
    class Success
    class Failure
  }
  package validator {
    class validatorfunctions <<functions>> {
      validate()
      optionality_of()
      max_length_of()
      is_between()
      conversion_of()
      an_attempt_to()
    }
  }
  package parsers {
    class parserfunctions <<functions>> {
      date_from_iso()
      int_from_string()
    }
  }
  package anonymizer {
    class anonymizerfunctions <<functions>> {
      anonymize()
    }
  }
  package email {
    class emailfunctions <<functions>> {
      is_valid_email_address()
    }
  }
  package id {
    class ID
    class IDGenerator
    class FixedIDGeneratorGenerating
  }
}
validator .> parsers
validator .> results
parsers ..> results

@enduml

PlantUML version 1.2018.13(Mon Nov 26 18:11:51 CET 2018)
(GPL source distribution)
Java Runtime: OpenJDK Runtime Environment
JVM: OpenJDK 64-Bit Server VM
Java Version: 11.0.13+8-Ubuntu-0ubuntu1.20.04
Operating System: Linux
OS Version: 5.4.0-100-generic
Default Encoding: UTF-8
Language: en
Country: US
--></g></svg>