<?xml version="1.0" encoding="UTF-8" standalone="no"?><svg xmlns="http://www.w3.org/2000/svg" xmlns:xlink="http://www.w3.org/1999/xlink" contentScriptType="application/ecmascript" contentStyleType="text/css" height="450px" preserveAspectRatio="none" style="width:962px;height:450px;" version="1.1" viewBox="0 0 962 450" width="962px" zoomAndPan="magnify"><defs><filter height="300%" id="f158mmnx5iyxv0" width="300%" x="-1" y="-1"><feGaussianBlur result="blurOut" stdDeviation="2.0"/><feColorMatrix in="blurOut" result="blurOut2" type="matrix" values="0 0 0 0 0 0 0 0 0 0 0 0 0 0 0 0 0 0 .4 0"/><feOffset dx="4.0" dy="4.0" in="blurOut2" result="blurOut3"/><feBlend in="SourceGraphic" in2="blurOut3" mode="normal"/></filter></defs><g><!--cluster quiltz.domain--><polygon fill="#FFFFFF" filter="url(#f158mmnx5iyxv0)" points="22,24,22,24.2102,32.0909,23.5857,42.1818,24.1933,52.2727,24.3997,62.3636,23.2866,72.4545,23.9223,82.5455,23.5735,92.6364,23.6165,102.7273,23.9318,112.8182,23.3086,122.9091,24.5536,133,24,132.7996,23.9371,134.3371,28.4396,135.9374,32.9619,137.1727,37.3696,138.6217,41.8443,140,46.2969,140,46.2649,150,46.4754,160,46.536,170,46.8826,180,46.9679,190,46.9761,200,46.5515,210,46.7605,220,46.9991,230,45.5757,240,46.9754,250,46.0004,260,46.8307,270,45.8019,280,46.2284,290,47.0385,300,46.2481,310,46.4022,320,46.6355,330,46.7131,340,46.293,350,46.5841,360,45.7245,370,46.5813,380,46.8451,390,46.7414,400,46.9099,410,45.8138,420,45.6447,430,45.6755,440,46.238,450,46.1003,460,46.9783,470,46.1222,480,45.9538,490,46.5251,500,45.63,510,45.7777,520,46.9458,530,46.7325,540,47.0314,550,45.9751,560,46.6161,570,46.8873,580,45.8245,590,46.201,600,46.4229,610,46.9486,620,46.2927,630,46.7594,640,45.7431,650,45.6196,660,46.8005,670,45.5799,680,46.8058,690,46.5035,700,46.029,710,45.9431,720,46.7556,730,45.9975,740,46.8887,750,45.7441,760,46.9143,770,46.7812,780,46.5418,790,46.3441,800,47.0235,810,46.9105,820,46.4661,830,46.5651,840,46.1666,850,47.0133,860,46.4517,870,46.4694,880,45.6885,890,45.8917,900,46.8276,910,46.7266,920,46.2539,930,45.9747,940,46.2969,939.7811,46.2969,939.3138,56.3405,940.4147,66.3842,940.7396,76.4279,940.5264,86.4716,940.6949,96.5152,939.8633,106.5589,940.0872,116.6026,939.6124,126.6462,940.284,136.6899,940.2468,146.7336,940.5524,156.7772,939.7703,166.8209,939.8656,176.8646,940.4435,186.9083,940.5673,196.9519,939.4875,206.9956,939.8061,217.0393,940.1493,227.0829,939.3892,237.1266,940.3534,247.1703,940.258,257.2139,939.8992,267.2576,940.1422,277.3013,940.7287,287.345,939.6871,297.3886,940.315,307.4323,940.2856,317.476,940.1158,327.5196,940.1409,337.5633,940.1135,347.607,939.3758,357.6506,939.5992,367.6943,939.5385,377.738,940.0638,387.7817,940.0881,397.8253,940.1617,407.869,939.709,417.9127,939.9325,427.9563,940,438,940,437.8798,930.0217,438.5769,920.0435,438.4266,910.0652,437.5145,900.087,437.9271,890.1087,437.4228,880.1304,438.2884,870.1522,438.6085,860.1739,438.5446,850.1957,437.5644,840.2174,438.464,830.2391,437.2572,820.2609,438.2002,810.2826,437.7007,800.3043,438.0967,790.3261,438.2403,780.3478,438.4721,770.3696,437.2801,760.3913,438.4755,750.413,438.1782,740.4348,438.3553,730.4565,438.7478,720.4783,438.0055,710.5,438.1753,700.5217,438.2134,690.5435,438.1972,680.5652,437.9992,670.587,438.7107,660.6087,437.3903,650.6304,438.5653,640.6522,437.376,630.6739,437.4597,620.6957,438.04,610.7174,438.0283,600.7391,437.5072,590.7609,438.4137,580.7826,438.1089,570.8043,438.7267,560.8261,438.6671,550.8478,437.5517,540.8696,437.6021,530.8913,437.8708,520.913,438.3555,510.9348,438.403,500.9565,438.3012,490.9783,437.658,481,438.6364,471.0217,438.6338,461.0435,437.9527,451.0652,437.7609,441.087,437.5986,431.1087,437.7854,421.1304,438.1374,411.1522,437.9316,401.1739,437.5822,391.1957,438.4874,381.2174,437.5411,371.2391,438.5024,361.2609,438.4272,351.2826,438.3719,341.3043,438.6925,331.3261,437.7541,321.3478,437.6994,311.3696,438.5189,301.3913,437.4031,291.413,437.766,281.4348,438.1155,271.4565,438.0687,261.4783,437.6415,251.5,437.957,241.5217,438.7446,231.5435,438.6485,221.5652,437.4037,211.587,438.0785,201.6087,437.4861,191.6304,437.9737,181.6522,438.293,171.6739,438.4199,161.6957,437.3353,151.7174,438.4005,141.7391,438.0084,131.7609,437.4447,121.7826,437.5289,111.8043,438.3266,101.8261,438.2499,91.8478,437.9836,81.8696,437.3279,71.8913,438.6581,61.913,437.6882,51.9348,437.4719,41.9565,437.9327,31.9783,438.5897,22,438,22.6154,438,22.0351,427.9024,21.8488,417.8049,22.1698,407.7073,22.1862,397.6098,21.4922,387.5122,22.414,377.4146,22.5588,367.3171,21.7842,357.2195,21.5708,347.122,22.6746,337.0244,22.021,326.9268,21.9998,316.8293,22.299,306.7317,21.3543,296.6341,22.53,286.5366,21.9846,276.439,22.6688,266.3415,21.7841,256.2439,22.409,246.1463,21.556,236.0488,22.245,225.9512,22.3793,215.8537,21.6727,205.7561,22.363,195.6585,21.4286,185.561,21.5295,175.4634,22.6828,165.3659,22.6844,155.2683,22.5685,145.1707,21.6396,135.0732,22.3842,124.9756,21.5279,114.878,22.0582,104.7805,21.9987,94.6829,21.7376,84.5854,22.6159,74.4878,22.4433,64.3902,21.6792,54.2927,22.5266,44.1951,22.0919,34.0976,22,24" style="stroke: #000000; stroke-width: 1.5;"/><path d="M22,46.2969 L22,46.5771 L31.8333,45.7444 L41.6667,46.5546 L51.5,46.8298 L61.3333,45.3457 L71.1667,46.1933 L81,45.7282 L90.8333,45.7855 L100.6667,46.206 L110.5,45.375 L120.3333,47.0351 L130.1667,45.4565 L140,46.2969 " fill="#FFFFFF" style="stroke: #000000; stroke-width: 1.5;"/><text fill="#000000" font-family="sans-serif" font-size="14" font-weight="bold" lengthAdjust="spacingAndGlyphs" textLength="105" x="26" y="38.9951">quiltz.domain</text><!--cluster results--><polygon fill="#FFFFFF" filter="url(#f158mmnx5iyxv0)" points="579,291,579,291.2102,589.1667,290.5857,599.3333,291.1933,609.5,291.3997,619.6667,290.2866,629.8333,290.9223,640,291,639.8644,290.9574,641.278,295.4211,642.7783,299.9119,643.9801,304.3091,645.7761,308.8928,647,313.2969,647,312.6666,657.1053,313.0991,667.2105,313.7288,677.3158,313.2111,687.4211,313.3651,697.5263,313.2649,707.6316,313.4754,717.7368,313.536,727.8421,313.8826,737.9474,313.9679,748.0526,313.9761,758.1579,313.5515,768.2632,313.7605,778.3684,313.9991,788.4737,312.5757,798.5789,313.9754,808.6842,313.0004,818.7895,313.8307,828.8947,312.8019,839,313.2969,838.9315,313.2969,839.7416,323.5972,838.9513,333.8976,839.1053,344.1979,839.3386,354.4983,839.4162,364.7986,838.9961,375.099,839.2872,385.3993,838.4276,395.6997,839,406,839,406.2844,829,406.5482,819,406.4445,809,406.613,799,405.5169,789,405.3478,779,405.3786,769,405.9411,759,405.8035,749,406.6814,739,405.8253,729,405.6569,719,406.2283,709,405.3332,699,405.4809,689,406.649,679,406.4357,669,406.7345,659,405.6782,649,406.3192,639,406.5904,629,405.5276,619,405.9041,609,406.126,599,406.6518,589,405.9958,579,406,579.4626,406,578.4462,396.4167,578.3227,386.8333,579.5036,377.25,578.2831,367.6667,579.509,358.0833,579.2066,348.5,578.7321,338.9167,578.6462,329.3333,579.4588,319.75,578.7007,310.1667,579.5919,300.5833,579,291" style="stroke: #000000; stroke-width: 1.5;"/><path d="M579,313.2969 L579,313.5771 L588.7143,312.7444 L598.4286,313.5546 L608.1429,313.8298 L617.8571,312.3457 L627.5714,313.1933 L637.2857,312.7282 L647,313.2969 " fill="#FFFFFF" style="stroke: #000000; stroke-width: 1.5;"/><text fill="#000000" font-family="sans-serif" font-size="14" font-weight="bold" lengthAdjust="spacingAndGlyphs" textLength="55" x="583" y="305.9951">results</text><!--cluster validator--><polygon fill="#FFFFFF" filter="url(#f158mmnx5iyxv0)" points="723,75,723,75.2102,733.5714,74.5857,744.1429,75.1933,754.7143,75.3997,765.2857,74.2866,775.8571,74.9223,786.4286,74.5735,797,75,796.878,74.9617,798.3783,79.4526,799.5801,83.8497,801.3761,88.4334,802.3996,92.7746,804,97.2969,804,97.0991,814.4,97.7288,824.8,97.2111,835.2,97.3651,845.6,97.2649,856,97.4754,866.4,97.536,876.8,97.8826,887.2,97.9679,897.6,97.9761,908,97.2969,908.2546,97.2969,908.4636,107.5438,908.7022,117.7906,907.2788,128.0375,908.6785,138.2844,907.7035,148.5313,908.5338,158.7781,907.505,169.025,907.9315,179.2719,908.7416,189.5188,907.9513,199.7656,908.1053,210.0125,908.3386,220.2594,908.4162,230.5063,907.9961,240.7531,908,251,908,251.2872,898.2632,250.4276,888.5263,251.2844,878.7895,251.5482,869.0526,251.4445,859.3158,251.613,849.5789,250.5169,839.8421,250.3478,830.1053,250.3786,820.3684,250.9411,810.6316,250.8035,800.8947,251.6814,791.1579,250.8253,781.4211,250.6569,771.6842,251.2283,761.9474,250.3332,752.2105,250.4809,742.4737,251.649,732.7368,251.4357,723,251,723.7345,251,722.6782,241.2222,723.3192,231.4444,723.5904,221.6667,722.5276,211.8889,722.9041,202.1111,723.126,192.3333,723.6518,182.5556,722.9958,172.7778,723.4626,163,722.4462,153.2222,722.3227,143.4444,723.5036,133.6667,722.2831,123.8889,723.509,114.1111,723.2066,104.3333,722.7321,94.5556,722.6462,84.7778,723,75" style="stroke: #000000; stroke-width: 1.5;"/><path d="M723,97.2969 L723,97.5771 L733.125,96.7444 L743.25,97.5546 L753.375,97.8298 L763.5,96.3457 L773.625,97.1933 L783.75,96.7282 L793.875,96.7855 L804,97.2969 " fill="#FFFFFF" style="stroke: #000000; stroke-width: 1.5;"/><text fill="#000000" font-family="sans-serif" font-size="14" font-weight="bold" lengthAdjust="spacingAndGlyphs" textLength="68" x="727" y="89.9951">validator</text><!--cluster parsers--><polygon fill="#FFFFFF" filter="url(#f158mmnx5iyxv0)" points="510,100.5,510,100.7102,519.5714,100.0857,529.1429,100.6933,538.7143,100.8997,548.2857,99.7866,557.8571,100.4223,567.4286,100.0735,577,100.5,576.878,100.4617,578.3783,104.9526,579.5801,109.3497,581.3761,113.9334,582.3996,118.2746,584,122.7969,584,122.5991,593.9,123.2288,603.8,122.7111,613.7,122.8651,623.6,122.7649,633.5,122.9754,643.4,123.036,653.3,123.3826,663.2,123.4679,673.1,123.4761,683,122.7969,683.2546,122.7969,683.4636,133.0672,683.7022,143.3375,682.2788,153.6078,683.6785,163.8781,682.7035,174.1484,683.5338,184.4188,682.505,194.6891,682.9315,204.9594,683.7416,215.2297,683,225.5,683,225.4513,672.8235,225.6053,662.6471,225.8386,652.4706,225.9162,642.2941,225.4961,632.1176,225.7872,621.9412,224.9276,611.7647,225.7844,601.5882,226.0482,591.4118,225.9445,581.2353,226.113,571.0588,225.0169,560.8824,224.8478,550.7059,224.8786,540.5294,225.4411,530.3529,225.3035,520.1765,226.1814,510,225.5,509.8253,225.5,509.6569,215.8846,510.2283,206.2692,509.3332,196.6538,509.4809,187.0385,510.649,177.4231,510.4357,167.8077,510.7345,158.1923,509.6782,148.5769,510.3192,138.9615,510.5904,129.3462,509.5276,119.7308,509.9041,110.1154,510,100.5" style="stroke: #000000; stroke-width: 1.5;"/><path d="M510,122.7969 L510,123.0771 L520.5714,122.2444 L531.1429,123.0546 L541.7143,123.3298 L552.2857,121.8457 L562.8571,122.6933 L573.4286,122.2282 L584,122.7969 " fill="#FFFFFF" style="stroke: #000000; stroke-width: 1.5;"/><text fill="#000000" font-family="sans-serif" font-size="14" font-weight="bold" lengthAdjust="spacingAndGlyphs" textLength="61" x="514" y="115.4951">parsers</text><!--cluster anonymizer--><polygon fill="#FFFFFF" filter="url(#f158mmnx5iyxv0)" points="312,115,312,115.2102,321.8,114.5857,331.6,115.1933,341.4,115.3997,351.2,114.2866,361,114.9223,370.8,114.5735,380.6,114.6165,390.4,114.9318,400.2,114.3086,410,115,410.1761,115.0553,411.1996,119.3964,412.7371,123.899,414.3374,128.4213,415.5727,132.8289,417,137.2969,417,137.3651,427.1667,137.2649,437.3333,137.4754,447.5,137.536,457.6667,137.8826,467.8333,137.9679,478,137.2969,478.6793,137.2969,478.2546,147.8259,478.4636,158.3549,478.7022,168.8839,477.2788,179.4129,478.6785,189.942,477.7035,200.471,478,211,478,211.5338,468.2353,210.505,458.4706,210.9315,448.7059,211.7416,438.9412,210.9513,429.1765,211.1053,419.4118,211.3386,409.6471,211.4162,399.8824,210.9961,390.1176,211.2872,380.3529,210.4276,370.5882,211.2844,360.8235,211.5482,351.0588,211.4445,341.2941,211.613,331.5294,210.5169,321.7647,210.3478,312,211,311.3786,211,311.9411,201.4,311.8035,191.8,312.6814,182.2,311.8253,172.6,311.6569,163,312.2283,153.4,311.3332,143.8,311.4809,134.2,312.649,124.6,312,115" style="stroke: #000000; stroke-width: 1.5;"/><path d="M312,137.2969 L312,137.5771 L321.5455,136.7444 L331.0909,137.5546 L340.6364,137.8298 L350.1818,136.3457 L359.7273,137.1933 L369.2727,136.7282 L378.8182,136.7855 L388.3636,137.206 L397.9091,136.375 L407.4545,138.0351 L417,137.2969 " fill="#FFFFFF" style="stroke: #000000; stroke-width: 1.5;"/><text fill="#000000" font-family="sans-serif" font-size="14" font-weight="bold" lengthAdjust="spacingAndGlyphs" textLength="92" x="316" y="129.9951">anonymizer</text><!--cluster id--><polygon fill="#FFFFFF" filter="url(#f158mmnx5iyxv0)" points="46,113.5,46,113.5701,50,113.3619,54,113.5644,58,113.6332,62,113.2622,66,113.5,65.9753,113.4922,67.2644,117.9168,68.678,122.3805,70.1783,126.8713,71.3801,131.2685,73,135.7969,73,136.3505,82.7727,135.1666,92.5455,135.5991,102.3182,136.2288,112.0909,135.7111,121.8636,135.8651,131.6364,135.7649,141.4091,135.9754,151.1818,136.036,160.9545,136.3826,170.7273,136.4679,180.5,136.4761,190.2727,136.0515,200.0455,136.2605,209.8182,136.4991,219.5909,135.0757,229.3636,136.4754,239.1364,135.5004,248.9091,136.3307,258.6818,135.3019,268.4545,135.7284,278.2273,136.5385,288,135.7969,287.9513,135.7969,288.1053,145.8816,288.3386,155.9663,288.4162,166.0511,287.9961,176.1358,288.2872,186.2206,287.4276,196.3053,288.2844,206.39,288.5482,216.4748,288.4445,226.5595,288.613,236.6442,287.5169,246.729,287.3478,256.8137,287.3786,266.8984,287.9411,276.9832,287.8035,287.0679,288.6814,297.1526,287.8253,307.2374,287.6569,317.3221,288.2283,327.4069,287.3332,337.4916,287.4809,347.5763,288.649,357.6611,288.4357,367.7458,288.7345,377.8305,287.6782,387.9153,288,398,288,398.3192,277.9167,398.5904,267.8333,397.5276,257.75,397.9041,247.6667,398.126,237.5833,398.6518,227.5,397.9958,217.4167,398.4626,207.3333,397.4462,197.25,397.3227,187.1667,398.5036,177.0833,397.2831,167,398.509,156.9167,398.2066,146.8333,397.7321,136.75,397.6462,126.6667,398.4588,116.5833,397.7007,106.5,398.5919,96.4167,397.4473,86.3333,398.6174,76.25,398.4843,66.1667,398.245,56.0833,398.0472,46,398,46.7266,398,46.6136,387.8393,46.1693,377.6786,46.2682,367.5179,45.8697,357.3571,46.7165,347.1964,46.1549,337.0357,46.1726,326.875,45.3916,316.7143,45.5948,306.5536,46.5307,296.3929,46.4298,286.2321,45.9571,276.0714,45.6778,265.9107,45.7811,255.75,45.3138,245.5893,46.4147,235.4286,46.7396,225.2679,46.5264,215.1071,46.6949,204.9464,45.8633,194.7857,46.0872,184.625,45.6124,174.4643,46.284,164.3036,46.2468,154.1429,46.5524,143.9821,45.7703,133.8214,45.8656,123.6607,46,113.5" style="stroke: #000000; stroke-width: 1.5;"/><path d="M46,135.7969 L46,135.8903 L51.4,135.6127 L56.8,135.8828 L62.2,135.9745 L67.6,135.4798 L73,135.7969 " fill="#FFFFFF" style="stroke: #000000; stroke-width: 1.5;"/><text fill="#000000" font-family="sans-serif" font-size="14" font-weight="bold" lengthAdjust="spacingAndGlyphs" textLength="14" x="50" y="128.4951">id</text><!--class Success--><polygon fill="#F8F8F8" filter="url(#f158mmnx5iyxv0)" points="731,334,731,334.2102,741.5,333.5857,752,334.1933,762.5,334.3997,773,333.2866,783.5,333.9223,794,333.5735,804.5,333.6165,815,334,814.9318,334,814.3086,343.6,815.5536,353.2,814.3697,362.8,814.8022,372.4,815,382,815,382.4319,804.5,381.9142,794,382.0682,783.5,381.9681,773,382.1785,762.5,382.2391,752,382.5857,741.5,382.6711,731,382,731.6793,382,731.2546,372.4,731.4636,362.8,731.7022,353.2,730.2788,343.6,731,334" style="stroke: #383838; stroke-width: 1.5;"/><polygon fill="#C2C2C2" points="757.0608,352.6756,755.4484,354.8788,753.5412,358.1057,750.8136,360.2804,747.9474,361.4696,745.662,361.5728,742.7247,360.0855,739.9532,359.1139,737.8495,357.1412,736.7461,354.8828,736.0917,353.0845,735.4506,350.7357,734.41,348.7145,735.2096,346.741,735.9102,344.5792,738.5393,342.8695,740.389,340.6511,742.6784,339.9144,745.4001,339.2801,748.8904,339.657,750.8021,340.5585,753.0247,340.9672,755.7272,343.736,756.6693,346.659,757.0786,348.6534,756.615,351.9399" style="stroke: #383838; stroke-width: 1.0;"/><path d="M748.9688,355.6406 Q748.3906,355.9375 747.75,356.0781 Q747.1094,356.2344 746.4063,356.2344 Q743.9063,356.2344 742.5781,354.5938 Q741.2656,352.9375 741.2656,349.8125 Q741.2656,346.6875 742.5781,345.0313 Q743.9063,343.375 746.4063,343.375 Q747.1094,343.375 747.75,343.5313 Q748.4063,343.6875 748.9688,343.9844 L748.9688,346.7031 Q748.3438,346.125 747.75,345.8594 Q747.1563,345.5781 746.5313,345.5781 Q745.1875,345.5781 744.5,346.6563 Q743.8125,347.7188 743.8125,349.8125 Q743.8125,351.9063 744.5,352.9844 Q745.1875,354.0469 746.5313,354.0469 Q747.1563,354.0469 747.75,353.7813 Q748.3438,353.5 748.9688,352.9219 L748.9688,355.6406 Z "/><text fill="#000000" font-family="sans-serif" font-size="12" lengthAdjust="spacingAndGlyphs" textLength="52" x="760" y="354.1543">Success</text><path d="M732,366 L732,366.2802 L742.25,365.4476 L752.5,366.2577 L762.75,366.5329 L773,365.0488 L783.25,365.8964 L793.5,365.4313 L803.75,365.4887 L814,366 " fill="#F8F8F8" style="stroke: #383838; stroke-width: 1.5;"/><path d="M732,374 L732,374.2802 L742.25,373.4476 L752.5,374.2577 L762.75,374.5329 L773,373.0488 L783.25,373.8964 L793.5,373.4313 L803.75,373.4887 L814,374 " fill="#F8F8F8" style="stroke: #383838; stroke-width: 1.5;"/><!--class Failure--><polygon fill="#F8F8F8" filter="url(#f158mmnx5iyxv0)" points="622,334,622,334.2102,632.5714,333.5857,643.1429,334.1933,653.7143,334.3997,664.2857,333.2866,674.8571,333.9223,685.4286,333.5735,696,334,695.6165,334,695.9318,343.6,695.3086,353.2,696.5536,362.8,695.3697,372.4,696,382,696,381.8022,685.4286,382.4319,674.8571,381.9142,664.2857,382.0682,653.7143,381.9681,643.1429,382.1785,632.5714,382.2391,622,382,622.5857,382,622.6711,372.4,622.6793,362.8,622.2546,353.2,622.4636,343.6,622,334" style="stroke: #383838; stroke-width: 1.5;"/><polygon fill="#C2C2C2" points="648.0608,352.6756,646.4484,354.8788,644.5412,358.1057,641.8136,360.2804,638.9474,361.4696,636.662,361.5728,633.7247,360.0855,630.9532,359.1139,628.8495,357.1412,627.7461,354.8828,627.0917,353.0845,626.4506,350.7357,625.41,348.7145,626.2096,346.741,626.9102,344.5792,629.5393,342.8695,631.389,340.6511,633.6784,339.9144,636.4001,339.2801,639.8904,339.657,641.8021,340.5585,644.0247,340.9672,646.7272,343.736,647.6693,346.659,648.0786,348.6534,647.615,351.9399" style="stroke: #383838; stroke-width: 1.0;"/><path d="M639.9688,355.6406 Q639.3906,355.9375 638.75,356.0781 Q638.1094,356.2344 637.4063,356.2344 Q634.9063,356.2344 633.5781,354.5938 Q632.2656,352.9375 632.2656,349.8125 Q632.2656,346.6875 633.5781,345.0313 Q634.9063,343.375 637.4063,343.375 Q638.1094,343.375 638.75,343.5313 Q639.4063,343.6875 639.9688,343.9844 L639.9688,346.7031 Q639.3438,346.125 638.75,345.8594 Q638.1563,345.5781 637.5313,345.5781 Q636.1875,345.5781 635.5,346.6563 Q634.8125,347.7188 634.8125,349.8125 Q634.8125,351.9063 635.5,352.9844 Q636.1875,354.0469 637.5313,354.0469 Q638.1563,354.0469 638.75,353.7813 Q639.3438,353.5 639.9688,352.9219 L639.9688,355.6406 Z "/><text fill="#000000" font-family="sans-serif" font-size="12" lengthAdjust="spacingAndGlyphs" textLength="42" x="651" y="354.1543">Failure</text><path d="M623,366 L623,366.2802 L633.2857,365.4476 L643.5714,366.2577 L653.8571,366.5329 L664.1429,365.0488 L674.4286,365.8964 L684.7143,365.4313 L695,366 " fill="#F8F8F8" style="stroke: #383838; stroke-width: 1.5;"/><path d="M623,374 L623,374.2802 L633.2857,373.4476 L643.5714,374.2577 L653.8571,374.5329 L664.1429,373.0488 L674.4286,373.8964 L684.7143,373.4313 L695,374 " fill="#F8F8F8" style="stroke: #383838; stroke-width: 1.5;"/><!--class validatorfunctions--><polygon fill="#F8F8F8" filter="url(#f158mmnx5iyxv0)" points="766,118,766,118.2102,775.8333,117.5857,785.6667,118.1933,795.5,118.3997,805.3333,117.2866,815.1667,117.9223,825,117.5735,834.8333,117.6165,844.6667,117.9318,854.5,117.3086,864.3333,118.5536,874.1667,117.3697,884,118,883.8022,118,884.4319,127.8906,883.9142,137.7813,884.0682,147.6719,883.9681,157.5625,884.1785,167.4531,884.2391,177.3438,884.5857,187.2344,884.6711,197.125,884.6793,207.0156,884.2546,216.9063,884,226.7969,884,227.2605,874.1667,227.4991,864.3333,226.0757,854.5,227.4754,844.6667,226.5004,834.8333,227.3307,825,226.3019,815.1667,226.7284,805.3333,227.5385,795.5,226.7481,785.6667,226.9022,775.8333,227.1355,766,226.7969,766.4162,226.7969,765.9961,216.9063,766.2872,207.0156,765.4276,197.125,766.2844,187.2344,766.5482,177.3438,766.4445,167.4531,766.613,157.5625,765.5169,147.6719,765.3478,137.7813,765.3786,127.8906,766,118" style="stroke: #383838; stroke-width: 1.5;"/><text fill="#000000" font-family="sans-serif" font-size="12" lengthAdjust="spacingAndGlyphs" textLength="112" x="769" y="134.1387">validatorfunctions</text><path d="M767,141.9688 L767,142.249 L776.6667,141.4163 L786.3333,142.2265 L796,142.5017 L805.6667,141.0176 L815.3333,141.8651 L825,141.4001 L834.6667,141.4574 L844.3333,141.8779 L854,141.0469 L863.6667,142.7069 L873.3333,141.1284 L883,141.9688 " fill="#F8F8F8" style="stroke: #383838; stroke-width: 1.5;"/><text fill="#000000" font-family="sans-serif" font-size="11" lengthAdjust="spacingAndGlyphs" textLength="52" x="772" y="156.1792">validate()</text><text fill="#000000" font-family="sans-serif" font-size="11" lengthAdjust="spacingAndGlyphs" textLength="83" x="772" y="168.9839">optionality_of()</text><text fill="#000000" font-family="sans-serif" font-size="11" lengthAdjust="spacingAndGlyphs" textLength="90" x="772" y="181.7886">max_length_of()</text><text fill="#000000" font-family="sans-serif" font-size="11" lengthAdjust="spacingAndGlyphs" textLength="72" x="772" y="194.5933">is_between()</text><text fill="#000000" font-family="sans-serif" font-size="11" lengthAdjust="spacingAndGlyphs" textLength="87" x="772" y="207.3979">conversion_of()</text><text fill="#000000" font-family="sans-serif" font-size="11" lengthAdjust="spacingAndGlyphs" textLength="89" x="772" y="220.2026">an_attempt_to()</text><!--class parserfunctions--><polygon fill="#F8F8F8" filter="url(#f158mmnx5iyxv0)" points="553,143.5,553,143.7102,562.6364,143.0857,572.2727,143.6933,581.9091,143.8997,591.5455,142.7866,601.1818,143.4223,610.8182,143.0735,620.4545,143.1165,630.0909,143.4318,639.7273,142.8086,649.3636,144.0536,659,143.5,658.3697,143.5,658.8022,153.0964,659.4319,162.6927,658.9142,172.2891,659.0682,181.8854,658.9681,191.4818,659,201.0781,659,201.2567,649.3636,201.3173,639.7273,201.6638,630.0909,201.7492,620.4545,201.7574,610.8182,201.3328,601.1818,201.5417,591.5455,201.7804,581.9091,200.3569,572.2727,201.7566,562.6364,200.7816,553,201.0781,553.5338,201.0781,552.505,191.4818,552.9315,181.8854,553.7416,172.2891,552.9513,162.6927,553.1053,153.0964,553,143.5" style="stroke: #383838; stroke-width: 1.5;"/><text fill="#000000" font-family="sans-serif" font-size="12" lengthAdjust="spacingAndGlyphs" textLength="99" x="556.5" y="159.6387">parserfunctions</text><path d="M554,167.4688 L554,167.749 L564.4,166.9163 L574.8,167.7265 L585.2,168.0017 L595.6,166.5176 L606,167.3651 L616.4,166.9001 L626.8,166.9574 L637.2,167.3779 L647.6,166.5469 L658,167.4688 " fill="#F8F8F8" style="stroke: #383838; stroke-width: 1.5;"/><text fill="#000000" font-family="sans-serif" font-size="11" lengthAdjust="spacingAndGlyphs" textLength="89" x="559" y="181.6792">date_from_iso()</text><text fill="#000000" font-family="sans-serif" font-size="11" lengthAdjust="spacingAndGlyphs" textLength="94" x="559" y="194.4839">int_from_string()</text><!--class anonymizerfunctions--><polygon fill="#F8F8F8" filter="url(#f158mmnx5iyxv0)" points="328,150,328,150.2102,338.3077,149.5857,348.6154,150.1933,358.9231,150.3997,369.2308,149.2866,379.5385,149.9223,389.8462,149.5735,400.1538,149.6165,410.4615,149.9318,420.7692,149.3086,431.0769,150.5536,441.3846,149.3697,451.6923,149.8022,462,150,462.144,150,461.9714,158.9547,462.0227,167.9094,461.9894,176.8641,462.0595,185.8188,462,194.7734,462,195.0126,451.6923,195.3591,441.3846,195.4445,431.0769,195.4527,420.7692,195.0281,410.4615,195.237,400.1538,195.4757,389.8462,194.0523,379.5385,195.4519,369.2308,194.4769,358.9231,195.3072,348.6154,194.2784,338.3077,194.7049,328,194.7734,328.2472,194.7734,327.9838,185.8188,328.0351,176.8641,328.1129,167.9094,328.1387,158.9547,328,150" style="stroke: #383838; stroke-width: 1.5;"/><text fill="#000000" font-family="sans-serif" font-size="12" lengthAdjust="spacingAndGlyphs" textLength="128" x="331" y="166.1387">anonymizerfunctions</text><path d="M329,173.9688 L329,174.249 L339.1538,173.4163 L349.3077,174.2265 L359.4615,174.5017 L369.6154,173.0176 L379.7692,173.8651 L389.9231,173.4001 L400.0769,173.4574 L410.2308,173.8779 L420.3846,173.0469 L430.5385,174.7069 L440.6923,173.1284 L450.8462,173.7051 L461,173.9688 " fill="#F8F8F8" style="stroke: #383838; stroke-width: 1.5;"/><text fill="#000000" font-family="sans-serif" font-size="11" lengthAdjust="spacingAndGlyphs" textLength="68" x="334" y="188.1792">anonymize()</text><!--class ID--><polygon fill="#F8F8F8" filter="url(#f158mmnx5iyxv0)" points="85,148.5,85,148.5701,93.8,148.3619,102.6,148.5644,111.4,148.6332,120.2,148.2622,129,148.5,128.9223,148.5,128.5735,158.1,128.6165,167.7,128.9318,177.3,128.3086,186.9,129,196.5,129,196.6845,120.2,196.2899,111.4,196.4341,102.6,196.644,93.8,196.4714,85,196.5,85.0682,196.5,84.9681,186.9,85.1785,177.3,85.2391,167.7,85.5857,158.1,85,148.5" style="stroke: #383838; stroke-width: 1.5;"/><polygon fill="#C2C2C2" points="111.0608,167.1756,109.4484,169.3788,107.5412,172.6057,104.8136,174.7804,101.9474,175.9696,99.662,176.0728,96.7247,174.5855,93.9532,173.6139,91.8495,171.6412,90.7461,169.3828,90.0917,167.5845,89.4506,165.2357,88.41,163.2145,89.2096,161.241,89.9102,159.0792,92.5393,157.3695,94.389,155.1511,96.6784,154.4144,99.4001,153.7801,102.8904,154.157,104.8021,155.0585,107.0247,155.4672,109.7272,158.236,110.6693,161.159,111.0786,163.1534,110.615,166.4399" style="stroke: #383838; stroke-width: 1.0;"/><path d="M102.9688,170.1406 Q102.3906,170.4375 101.75,170.5781 Q101.1094,170.7344 100.4063,170.7344 Q97.9063,170.7344 96.5781,169.0938 Q95.2656,167.4375 95.2656,164.3125 Q95.2656,161.1875 96.5781,159.5313 Q97.9063,157.875 100.4063,157.875 Q101.1094,157.875 101.75,158.0313 Q102.4063,158.1875 102.9688,158.4844 L102.9688,161.2031 Q102.3438,160.625 101.75,160.3594 Q101.1563,160.0781 100.5313,160.0781 Q99.1875,160.0781 98.5,161.1563 Q97.8125,162.2188 97.8125,164.3125 Q97.8125,166.4063 98.5,167.4844 Q99.1875,168.5469 100.5313,168.5469 Q101.1563,168.5469 101.75,168.2813 Q102.3438,168 102.9688,167.4219 L102.9688,170.1406 Z "/><text fill="#000000" font-family="sans-serif" font-size="12" lengthAdjust="spacingAndGlyphs" textLength="12" x="114" y="168.6543">ID</text><path d="M86,180.5 L86,180.5934 L94.4,180.3159 L102.8,180.5859 L111.2,180.6776 L119.6,180.1829 L128,180.5 " fill="#F8F8F8" style="stroke: #383838; stroke-width: 1.5;"/><path d="M86,188.5 L86,188.5934 L94.4,188.3159 L102.8,188.5859 L111.2,188.6776 L119.6,188.1829 L128,188.5 " fill="#F8F8F8" style="stroke: #383838; stroke-width: 1.5;"/><!--class IDGenerator--><polygon fill="#F8F8F8" filter="url(#f158mmnx5iyxv0)" points="164,148.5,164,148.7102,173.8182,148.0857,183.6364,148.6933,193.4545,148.8997,203.2727,147.7866,213.0909,148.4223,222.9091,148.0735,232.7273,148.1165,242.5455,148.4318,252.3636,147.8086,262.1818,149.0536,272,148.5,271.3697,148.5,271.8022,158.1,272.4319,167.7,271.9142,177.3,272.0682,186.9,272,196.5,272,196.4681,262.1818,196.6785,252.3636,196.7391,242.5455,197.0857,232.7273,197.1711,222.9091,197.1793,213.0909,196.7546,203.2727,196.9636,193.4545,197.2022,183.6364,195.7788,173.8182,197.1785,164,196.5,163.7035,196.5,164.5338,186.9,163.505,177.3,163.9315,167.7,164.7416,158.1,164,148.5" style="stroke: #383838; stroke-width: 1.5;"/><polygon fill="#C2C2C2" points="190.0608,167.1756,188.4484,169.3788,186.5412,172.6057,183.8136,174.7804,180.9474,175.9696,178.662,176.0728,175.7247,174.5855,172.9532,173.6139,170.8495,171.6412,169.7461,169.3828,169.0917,167.5845,168.4506,165.2357,167.41,163.2145,168.2096,161.241,168.9102,159.0792,171.5393,157.3695,173.389,155.1511,175.6784,154.4144,178.4001,153.7801,181.8904,154.157,183.8021,155.0585,186.0247,155.4672,188.7272,158.236,189.6693,161.159,190.0786,163.1534,189.615,166.4399" style="stroke: #383838; stroke-width: 1.0;"/><path d="M181.9688,170.1406 Q181.3906,170.4375 180.75,170.5781 Q180.1094,170.7344 179.4063,170.7344 Q176.9063,170.7344 175.5781,169.0938 Q174.2656,167.4375 174.2656,164.3125 Q174.2656,161.1875 175.5781,159.5313 Q176.9063,157.875 179.4063,157.875 Q180.1094,157.875 180.75,158.0313 Q181.4063,158.1875 181.9688,158.4844 L181.9688,161.2031 Q181.3438,160.625 180.75,160.3594 Q180.1563,160.0781 179.5313,160.0781 Q178.1875,160.0781 177.5,161.1563 Q176.8125,162.2188 176.8125,164.3125 Q176.8125,166.4063 177.5,167.4844 Q178.1875,168.5469 179.5313,168.5469 Q180.1563,168.5469 180.75,168.2813 Q181.3438,168 181.9688,167.4219 L181.9688,170.1406 Z "/><text fill="#000000" font-family="sans-serif" font-size="12" lengthAdjust="spacingAndGlyphs" textLength="76" x="193" y="168.6543">IDGenerator</text><path d="M165,180.5 L165,180.7802 L174.6364,179.9476 L184.2727,180.7577 L193.9091,181.0329 L203.5455,179.5488 L213.1818,180.3964 L222.8182,179.9313 L232.4545,179.9887 L242.0909,180.4091 L251.7273,179.5782 L261.3636,181.2382 L271,180.5 " fill="#F8F8F8" style="stroke: #383838; stroke-width: 1.5;"/><path d="M165,188.5 L165,188.7802 L174.6364,187.9476 L184.2727,188.7577 L193.9091,189.0329 L203.5455,187.5488 L213.1818,188.3964 L222.8182,187.9313 L232.4545,187.9887 L242.0909,188.4091 L251.7273,187.5782 L261.3636,189.2382 L271,188.5 " fill="#F8F8F8" style="stroke: #383838; stroke-width: 1.5;"/><!--class FixedIDGeneratorGenerating--><polygon fill="#F8F8F8" filter="url(#f158mmnx5iyxv0)" points="62,334,62,334.2102,72,333.5857,82,334.1933,92,334.3997,102,333.2866,112,333.9223,122,333.5735,132,333.6165,142,333.9318,152,333.3086,162,334.5536,172,333.3697,182,333.8022,192,334.4319,202,333.9142,212,334.0682,222,333.9681,232,334.1785,242,334.2391,252,334.5857,262,334.6711,272,334,272.6793,334,272.2546,343.6,272.4636,353.2,272.7022,362.8,271.2788,372.4,272,382,272,382.6785,262,381.7035,252,382.5338,242,381.505,232,381.9315,222,382.7416,212,381.9513,202,382.1053,192,382.3386,182,382.4162,172,381.9961,162,382.2872,152,381.4276,142,382.2844,132,382.5482,122,382.4445,112,382.613,102,381.5169,92,381.3478,82,381.3786,72,381.9411,62,382,61.8035,382,62.6814,372.4,61.8253,362.8,61.6569,353.2,62.2283,343.6,62,334" style="stroke: #383838; stroke-width: 1.5;"/><polygon fill="#C2C2C2" points="88.0608,352.6756,86.4484,354.8788,84.5412,358.1057,81.8136,360.2804,78.9474,361.4696,76.662,361.5728,73.7247,360.0855,70.9532,359.1139,68.8495,357.1412,67.7461,354.8828,67.0917,353.0845,66.4506,350.7357,65.41,348.7145,66.2096,346.741,66.9102,344.5792,69.5393,342.8695,71.389,340.6511,73.6784,339.9144,76.4001,339.2801,79.8904,339.657,81.8021,340.5585,84.0247,340.9672,86.7272,343.736,87.6693,346.659,88.0786,348.6534,87.615,351.9399" style="stroke: #383838; stroke-width: 1.0;"/><path d="M79.9688,355.6406 Q79.3906,355.9375 78.75,356.0781 Q78.1094,356.2344 77.4063,356.2344 Q74.9063,356.2344 73.5781,354.5938 Q72.2656,352.9375 72.2656,349.8125 Q72.2656,346.6875 73.5781,345.0313 Q74.9063,343.375 77.4063,343.375 Q78.1094,343.375 78.75,343.5313 Q79.4063,343.6875 79.9688,343.9844 L79.9688,346.7031 Q79.3438,346.125 78.75,345.8594 Q78.1563,345.5781 77.5313,345.5781 Q76.1875,345.5781 75.5,346.6563 Q74.8125,347.7188 74.8125,349.8125 Q74.8125,351.9063 75.5,352.9844 Q76.1875,354.0469 77.5313,354.0469 Q78.1563,354.0469 78.75,353.7813 Q79.3438,353.5 79.9688,352.9219 L79.9688,355.6406 Z "/><text fill="#000000" font-family="sans-serif" font-size="12" lengthAdjust="spacingAndGlyphs" textLength="178" x="91" y="354.1543">FixedIDGeneratorGenerating</text><path d="M63,366 L63,366.2802 L72.9048,365.4476 L82.8095,366.2577 L92.7143,366.5329 L102.619,365.0488 L112.5238,365.8964 L122.4286,365.4313 L132.3333,365.4887 L142.2381,365.9091 L152.1429,365.0782 L162.0476,366.7382 L171.9524,365.1596 L181.8571,365.7363 L191.7619,366.5759 L201.6667,365.8856 L211.5714,366.091 L221.4762,365.9574 L231.381,366.238 L241.2857,366.3188 L251.1905,366.7809 L261.0952,366.8947 L271,366 " fill="#F8F8F8" style="stroke: #383838; stroke-width: 1.5;"/><path d="M63,374 L63,374.2802 L72.9048,373.4476 L82.8095,374.2577 L92.7143,374.5329 L102.619,373.0488 L112.5238,373.8964 L122.4286,373.4313 L132.3333,373.4887 L142.2381,373.9091 L152.1429,373.0782 L162.0476,374.7382 L171.9524,373.1596 L181.8571,373.7363 L191.7619,374.5759 L201.6667,373.8856 L211.5714,374.091 L221.4762,373.9574 L231.381,374.238 L241.2857,374.3188 L251.1905,374.7809 L261.0952,374.8947 L271,374 " fill="#F8F8F8" style="stroke: #383838; stroke-width: 1.5;"/><!--link validator to parsers--><path d="M722.9102,131 L722.9102,131.0934 L722.6977,130.8159 L722.4852,131.0859 L722.2727,131.1776 L722.0602,130.6829 L721.8477,131 L721.8477,130.9655 L717.0219,130.8104 L712.1961,130.8296 L707.3703,130.9697 L702.5445,130.6927 L697.7188,131 L697.7188,131.2461 L696.1613,130.7199 L694.6038,130.9121 L693.0464,131.192 L691.4889,130.9619 L689.9315,131 L689.9315,131.0303 L689.1108,130.9858 L688.2901,131.0793 L687.4695,131.1063 L686.6488,131.2603 L685.8282,131 L685.8282,131.2982 L685.4082,131.3019 L684.9883,131.1132 L684.5683,131.206 L684.1484,131.3121 L683.7284,131 L683.7284,130.6795 L683.6224,131.3016 L683.5165,130.8682 L683.4105,131.2372 L683.3046,130.78 L683.1986,131 " fill="none" style="stroke: #383838; stroke-width: 1.0; stroke-dasharray: 7.0,7.0;"/><polygon fill="#383838" points="683.1986,131,683.2271,131.064,684.9426,131.6738,686.8248,132.6589,688.6528,133.5217,690.3021,133.9827,692.1986,135,692.1803,134.9817,691.2981,134.0995,690.5083,133.3096,689.7826,132.5839,688.8357,131.637,688.1986,131,688.3291,131.1305,688.8501,130.0514,689.752,129.3534,690.7005,128.7018,691.3784,127.7798,692.1986,127,692.2079,127.0208,690.3943,127.7903,688.6228,128.6544,686.831,129.4728,685.0779,130.3784,683.1986,131" style="stroke: #383838; stroke-width: 1.0;"/><!--link validator to results--><path d="M722.7848,215 L722.7848,215.0934 L722.4448,214.8159 L722.1047,215.0859 L721.7647,215.1776 L721.4246,214.6829 L721.0846,215 L721.0846,214.9655 L720.3191,214.8104 L719.5536,214.8296 L718.7881,214.9697 L718.0226,214.6927 L717.2571,215 L717.2571,215.2461 L715.4213,214.7199 L713.5855,214.9121 L711.7497,215.192 L709.9139,214.9619 L708.0781,215 L708.0781,215.091 L698.2125,214.9574 L688.3469,215.238 L678.4813,215.3188 L668.6156,215.7809 L658.75,215 L658.75,215.8947 L648.5,215.9057 L638.25,215.3395 L628,215.6181 L617.75,215.9363 L607.5,214.0384 L597.25,215.9047 L587,215 L586.6047,215 L587.7117,224.7355 L586.34,234.4711 L586.9087,244.2066 L587.9888,253.9421 L586.935,263.6777 L587.1404,273.4132 L587,283.1488 L587.1505,283.1488 L587.185,284.4471 L586.9983,285.7454 L587.1277,287.0437 L586.7456,288.342 L587,289.6404 L587.1264,289.6404 L587.2436,289.8025 L587.1976,289.9647 L587.2725,290.1269 L586.7853,290.289 L587,290.4512 " fill="none" style="stroke: #383838; stroke-width: 1.0; stroke-dasharray: 7.0,7.0;"/><polygon fill="#383838" points="587,290.4512,587.064,290.4796,587.6738,288.5951,588.6589,286.8773,589.5217,285.1053,589.9827,283.1546,591,281.4512,590.9817,281.4329,590.0995,282.1507,589.3096,282.9608,588.5839,283.8351,587.637,284.4882,587,285.4512,587.1305,285.5817,586.0514,284.5026,585.3534,283.8046,584.7018,283.153,583.7798,282.231,583,281.4512,583.0208,281.4604,583.7903,283.2469,584.6544,285.0753,585.4728,286.8836,586.3784,288.7305,587,290.4512" style="stroke: #383838; stroke-width: 1.0;"/><!--link parsers to results--><path d="M518,226.464 L518.0934,226.464 L517.8159,226.8524 L518.0859,227.2408 L518.1776,227.6292 L517.6829,228.0175 L518,228.4059 L517.9655,228.4059 L517.8104,229.9921 L517.8296,231.5783 L517.9697,233.1645 L517.6927,234.7507 L518,236.3369 L518.2461,236.3369 L517.7199,242.9885 L517.9121,249.6401 L518.192,256.2918 L517.9619,262.9434 L518,269.595 L518.091,269.595 L517.9574,279.4178 L518.238,289.2406 L518.3188,299.0633 L518.7809,308.8861 L518.8947,318.7089 L518.9057,328.5317 L518.3395,338.3544 L518.6181,348.1772 L518,358 L518,358.3121 L524.415,357.6795 L530.83,358.3016 L537.245,357.8682 L543.66,358.2372 L550.075,358 L550.075,357.78 L554.7334,357.9696 L559.3917,358.3296 L564.0501,357.9783 L568.7085,358.0468 L573.3669,358 L573.3669,358.1505 L574.3034,358.185 L575.2399,357.9983 L576.1764,358.1277 L577.1129,357.7456 L578.0495,358 L578.0495,358.1264 L578.1559,358.2436 L578.2624,358.1976 L578.3688,358.2725 L578.4752,357.7853 L578.5817,358 L578.5817,357.7101 L578.6339,357.7238 L578.6862,357.9738 L578.7385,357.9127 L578.7907,358.3028 L578.843,358 " fill="none" style="stroke: #383838; stroke-width: 1.0; stroke-dasharray: 7.0,7.0;"/><polygon fill="#383838" points="578.843,358,578.8714,358.064,576.9869,357.0738,575.2691,356.4589,573.4971,355.7217,571.5464,354.5827,569.843,354,569.8247,353.9817,570.5424,354.6995,571.3526,355.5096,572.2269,356.3839,572.88,357.037,573.843,358,573.9735,358.1305,572.8944,358.6514,572.1964,359.5534,571.5448,360.5018,570.6228,361.1798,569.843,362,569.8522,362.0208,571.6386,361.1903,573.4671,360.4544,575.2753,359.6728,577.1223,358.9784,578.843,358" style="stroke: #383838; stroke-width: 1.0;"/><!--link ID to IDGenerator--><!--link ID to FixedIDGeneratorGenerating--><!--
@startuml domain-lib
skinparam {
  handwritten true
  monochrome true
  linetype ortho
}
hide <<functions>> circle
hide <<functions>> attributes
hide <<functions>> stereotype

package quiltz.domain {
  package results {
    class Success
    class Failure
  }
  package validator {
    class validatorfunctions <<functions>> {
      validate()
      optionality_of()
      max_length_of()
      is_between()
      conversion_of()
      an_attempt_to()
    }
  }
  package parsers {
    class parserfunctions <<functions>> {
      date_from_iso()
      int_from_string()
    }
  }
  package anonymizer {
    class anonymizerfunctions <<functions>> {
      anonymize()
    }
  }
  package id {
    class ID
    class IDGenerator
    class FixedIDGeneratorGenerating
  }
}
validator .> parsers
validator .> results
parsers ..> results

@enduml

PlantUML version 1.2018.13(Mon Nov 26 18:11:51 CET 2018)
(GPL source distribution)
Java Runtime: OpenJDK Runtime Environment
JVM: OpenJDK 64-Bit Server VM
Java Version: 13.0.3+3-MTS
Operating System: Linux
OS Version: 5.4.0-52-generic
Default Encoding: UTF-8
Language: en
Country: US
--></g></svg>